<?xml version="1.0" encoding="UTF-8" standalone="no"?>
<svg xmlns:rdf="http://www.w3.org/1999/02/22-rdf-syntax-ns#" xmlns="http://www.w3.org/2000/svg" height="1237pt" width="1070pt" version="1.1" xmlns:cc="http://creativecommons.org/ns#" xmlns:dc="http://purl.org/dc/elements/1.1/" viewBox="0 0 1070 1237">
<path fill="#010101" d="m570.44 6.51c9.58-0.71 11.76 12.66 13.52 20.17-10.74 12.5-22.65 24.41-33.07 37.32 9.82 10.36 24.15 15.45 33.86 26.25 19.66 13.91 28.71 36.94 36.43 58.63 16.74 5.46 32.58 13.22 48.74 20.15 26.89 23.22 48.91 56.18 49.9 92.75-8.62 5.84 1.89 21.4 2.45 31.02 0.04 13.95 7.5 25.87 11.21 38.86 3.65 4.94-1.45 4.71-3.47 3.47-12.08-11.53-18.06-29.85-28.75-40.96-6.37 15.69-23.64 23.12-31.16 37.62 11.78 7.9 24 15.16 35.73 23.16 7.53-5.24 2.09-22.69 14.07-22.53-6.61 30.1 1.73 62.54-13.96 90.47-35.64 43.8-88.55 72.31-144.39 79.59-4.9 23.41-12.8 46.9-10.18 71.14 18.59 0.74 32.94-15.04 49.3-22.7 15.63-4.67 1.39-25.7 10.49-34.86 4.34 4.5 5.82 13.04 10.84 18.09 8.64-4.07 8.84-18.29 16.8-20.81-0.78 7.07-7.19 13.15-2.14 21.08 14.67 3.47 31.11-6.63 44.21-5.51-9.17 10.55-28.2 11.44-38.76 21.35-0.9 9.79 11.21 9.96 15.81 13.92-8.99 5.85-23.63-1.76-34.91-2.18-24.64 7.32-46.4 24.13-66.85 40.25 5.81 66.11 49.45 119.91 93.22 166.57 19.62-9.17 36.27-24.51 45.93-44.49 22.23-23.58 51.54-38.81 75.31-60.72 53.56-32.5 116.67-41.58 175.48-60.52 45.05-11.5 87.36-42.02 104.94-86.04 3.06-3.42 2.55-12.91 7.95-12.79 8.96 27.9 2.35 58.32-3.73 86.97-15.52 33.65-44.03 58.05-75.28 76.76-39.11 18.31-78.99 35.26-117.7 54.27-28.95 38.06-53.03 80.27-69.94 125.13-5.48 27.95-9.22 56.27-14.62 84.26-19.06 46.91-39.88 93.14-64.75 137.32-1.11 4.17-8.82 11.4-1.85 14.22 27.29 0.37 52.27 12.83 78.44 19.2 37.2 14.01 76.48-5.99 114.42 2.6 18.26 4.81 38.32-2.21 55.68 6.42 25.68 9.17 51.4 27.45 57.94 55.31 0.23 14.36 4.19 34.83-9.65 44.26-13.99-8.1-24.13-22.36-38.14-30.85-3.84 11.62-4.14 26.09-12.98 34.87-15.78-5.21-18.67-22.88-28.25-34.22-2.57 16.1 4.79 39.12-11.62 50.21-14.18-17.71-39.89-25.35-62.6-21.8-38.58 3.88-78.08-2.12-112.68-19.93-27.15-14.24-57.75-4.68-86.59-3.59-22.22-4.01-45.22-6.55-65.31-17.51-16.79-9.27-35.65 1.39-48.63 10.46 9.48-44.11 58.67-62.54 78.04-100.48-28.53 11.25-58.58 17.97-88.13 25.96-40.57 0.05-79.73-12.62-116.06-30.07-9.06 18.35-23.8 33.97-42.74 41.78-3.33-11.61 9.19-23.78 3.04-35.73-31.37-24.49-79.73-18.42-110.15 5.09-12.81 30.7-51.01 35.99-66.18 64.78-8.37 7.13 0.5 17.1-0.15 25.9-30.58-3.88-37.07-40.58-43.1-65.56-4.98-0.23-9.19 3.28-13.72 4.82-8.64 4.97-21.07-2.6-27.86 6.13-13.61 12.58-35.91 17.75-41.49 37.51-4.62 1.19-3.52-6.55-5.65-8.76-13.93-25.49 3.41-52.26 11.81-76.14-19.01-5.26-37.56 9.13-54.85 17.07-9.3 2.8-7.39 20.32-18.76 17.88 2.32-33.68 10.51-71.35 39.03-92.55 37.35-35.65 93.92-31.86 141.65-32.15 25.43 0.66 56.9 11.43 77.91-7.37-10.05-31.81-2.9-66.28-4.29-99.09 6.13-22.97 12.47-45.99 19.28-68.75 18.3-15.57 36.76-31.06 55.29-46.38 16.21-1.58 32.67-0.75 48.56 2.31 33.84-47.2 71.37-91.8 106.68-137.91 0.73-7.21 3.31-16.6-3.44-21.92-12.82-12.69-22.95-33.01-44.13-29.65-8.98 5.73-18.91 9.84-29.65 10.43 1.23-10.81 13.89-15.67 20.88-22.95-8.19-4.44-21.61-2.94-28.93-7.87 7.05-4.08 19.57-2.16 28.8-5.09-1.71-10.06-16.19-12.55-15.69-23.63 10.67 5.53 21.44 15.03 34.74 15.64 1.44-6.07 2.44-16.98 9.1-18.64 1.01 6.67 2.88 14.03 5.03 20.88-1.74 22.37 21.37 41.56 42.68 41.82 3.23-19.83 16.22-36.37 17.59-56.63 2.41-8.83-0.62-18.98 5.82-26.42-18.51-5.2-37.78-7.61-56.33-12.61-17.12-10.14-34.22-20.41-51.07-30.98-21.41-30.05-37.49-63.51-55.46-95.36 10.44 0.11 17.83 17.35 27.61 22.75 11.08-8.43 18.86-20.3 26.86-31.51-2.43-4.09-5.53-7.77-8.77-11.25-8.51 8.42-14.58 20.36-22.95 28.04-14.21-13.36 10.07-41.18-9.41-52.05-0.35-27.28-1.16-57.09 14.38-80.92 10.61-24.49 39.66-38.24 41.27-66.71 6.46-36.47 35.37-62.57 51.88-94.19 4.63-2.82 18.96-3.85 9.19-11.41-8.28-13.32-36.38-33.21-13.32-45.59 0.99 10.23 10.12 17.09 17.09 23.72 4-1.5 2.89-11.64 7.83-11.59 1.95 10.1 6.35 21.13 12.06 30.24 18.62 8.24 18.25-13.05 23.3-24.3 4.11-1.17 3.94 4.85 5.93 7.08 5.75-13.53 18.3-23.97 18.24-39.73m-24.99 53.63c-7.98 2.03-4 8.02 1.75 9.88 0.65-2.85 3.17-10.72-1.75-9.88m-37.48 3.99c-0.65 13.51 12.47-0.85 0 0m5.89 15.44c-3.44 0.49-6.3-0.85-9.13-2.45-4.04-0.39-8.2 10.58-10.7 4-9.1 12.29-19.17 24.93-21.15 40.71 2.89-0.69 8.79-4.4 10.11-0.21-3.3 14.52-23.83 13.78-25.03 29.29 20.07-14.38 36.8-33.43 58.74-45.41-4.64-5.14-15.59 8.71-20.43 6.6 7.18-9.91 24.54-14.47 18.45-31.09 3.7 4.66 2.22 14.57 9.02 15.81 9.04-3.65 0.57-10.75 5.2-16.95-7.24-0.38-19.88-16.76-15.08-0.3m13.72-8.55c-0.31 15.59 14.71-1.65 0 0m21.77 2.36c-8.95 1.54-12.24 11.4-15.92 18.46 7.24 1.5 13.91 5.04 21.46 5-5.04 11.47-17.27-8.93-21.77 4.21 17.98 2.77 37.98 8.29 54.14 18.71-0.7-5.61-30.09-18.26-13.46-19.96-1.16-12.79-13.79-22.29-24.45-26.42m27.49 17.75c5.9 11.68 12.91 22.86 21.25 32.96 1.35 3.24 2.82 14.11-3.38 11.36-3.22-6.86-7.26 4.46-6.29 7.59-12.45 20.81-48.42 21.87-61.32 1.96-9.94 24.08-50.23 31.07-64.58 12.41-0.65 4.43-6.59 1.78-9.2 2.23-4.43-13.09 7.95-21.9 10.63-33.31-8.11 9.25-15.34 23.53-15.61 37.29 5.93-0.19 9.43 4.6 13.34 8.14 9.1 1.7-1.36-3.67 0.12-7.51 3.31 1.17 5.4 4.29 7.87 6.61-4.4 6.67 8.64-0.62 8.87 4.93-4.9 0.15-8.54 0.19-3.42 3.54-10.6 2.8-21.3-4.66-28.21-12.35-1.19 5.18-2.25 10.4-3.18 15.63 2.22-2.57 12.81-8.76 7.59-1.45-30.73 24.43-48.18 60.29-61.7 96.32-3.11 9.33-5.62 21.58 1.7 29.41 17.88-10.12 35.07-21.55 52.91-31.75 19.71-7.66 39.44-15.29 59.2-22.8 37.41-7.43 75.04-15.35 113.29-16.28 31.59 4.16 62.86 10.76 94.33 15.71-2.02-26.25-15.15-49.87-35.19-66.69-14.24-21.33-40.21-28.02-63.98-31.95 1.51-1.87 4.45-2.99 5.05-5.32-8-22.02-22.81-41.16-40.09-56.68m-44.26 13.93c-1.98 3.12-3.16 6.67-4.55 10.08 10.61-9.62 27.23 12.07 12.89 17.91-14.89 3.95-2.93 17.7 6.79 19.45 18.79 1.11 38.2-8.59 41.17-28.51-18.58-6.75-36.02-18.32-56.3-18.93m-15.12 4.06c-15.93 15.45-38.14 23.62-50.05 43.02 9.55 15.69 36.97 17.32 44.8-1.8-9.03 4.29-16.88-12.05-11.04-18.84 6.38-3.72 13.84-4.02 21.01-3.85-7.3-3.84 0.47-15.58-4.72-18.53m-8.41 22.86c-0.91 10.26 11.28-2.13 0 0m63.85 112.46c-8.13 3.48-17.91 2.84-25.74 4.2 9.74 19.62 11.28 43.29 22.85 61.26 4.59-22.5 9.98-44.94 18.71-66.28-5.29 0.05-10.58 0.26-15.82 0.82m21.78-0.43c-2.58 12.97-12.79 24.22-10.46 38.02 8.28 2.81 16.69 5.79 23.98 10.68-0.71 10.26 2.01 21.72-3.8 30.92-2.4 5.71 6.58 1.86 8.95 2.48 0.63-28.72 15.8-54.58 21.55-82.06-13.41-0.23-26.82-0.24-40.22-0.04m46.48-0.01c-2.15 22.02-15.28 40.42-19.1 61.93 17.63-17.02 33.61-35.75 50.89-53.18-8.81-5.62-21.66-5.41-31.79-8.75m-102.6 9.36c-7.68 4.05-17.41 1.19-24.41 6.8-10.31 19.4-13.97 41.43-19.14 62.58 25.74 17.82 4.43-25.18 23.66-29.12 10.27-5.34 24.29-11.16 32.24 1.5-2.7 8.86-5.46 17.83-3.6 27.26 8.19 3.4 20.56-4.35 18.02-13.74-4.05-15.77-16.5-28-20.25-43.77-1.88-3.36-0.51-13.48-6.52-11.51m144.93 2.94c13.16 22.24 25.23 45.45 41.59 65.56-4.23-19.45-9.02-38.81-13.71-58.12-8.31-5.84-19.22-2.39-27.88-7.44m-6.18 0.75c-22.34 20.25-39.11 45.53-60.21 66.93 12.75-2.77 26.19-7.22 37.18 2.82 16.94-3.47 23.43-21.93 37.1-30.78 3.77-14.43-10.67-27.22-14.07-38.97m-173.8 3.31c-13.59 11.3-33.3 7.5-46.36 19.71 10.06 17.03 15.79 39.67 28.69 53.52 2.54-25.06 18.99-49.43 17.67-73.23m-58.01 24.04c-17.68 7.22-34.2 17.44-49.61 28.41-4.38 15.49-3.25 34.26-4.25 48.87 20.91-23.11 38.11-51.26 55.26-77.8l-1.4 0.52m6.65-0.65c-12.65 17.32-24.64 35.63-32.01 55.85 18.42 21.42 42.5-3.15 55.48-16.41-10.89-11.27-13.67-27.45-23.47-39.44m177.33 40.68c-22.68 15.72-57.06-6.42-73.43 19.63 4.5 14.84 13.52 30.95 3.84 45.82-10.33 17.42 10.71 38.21 28.54 29.39 2.01-14.36-0.45-29.42 0.71-43.98 15.22 2.34 1.89 31.57 20.34 35.6 14.35 0.16 27.66-11.23 34.63-21.68 2.03 21.7-26.77 16.35-34.94 30.59 3.42 5.21 5.51 17.77 13.66 14.16 26.17-10.89 27.24-44.06 35.71-67.48 9.57-20.1-10.34-39.93-29.06-42.05m-144.45 22.74c-6.13-2.56-3.28-10.27-4.91-15.24-8.06 2.8-18.46 2.9-21.36 12.83-10.26 13.66-15.47 30.25-14.55 47.39-2.43 6.13 0.92 12.07 2.92 17.74 0.22 5.81 1.43 14.52 9.44 12.88 5.45-6.02 9.9-12.98 14.33-19.77-2.67-5.65-5.52-11.77-3.36-18.09 2.35 3.28 3.94 7.54 7.92 9.21 0.13-5.72 0.22-18.12 9.41-14.79 0.59 17.38 10.57 42.12 32.02 39.83 18.2 4.06 12.88-20.88 21.07-30.29 4.46 11.02 7.47 23.25 16.94 31.32-4.52-12.78-6.13-27.23-0.43-39.93 4.16-6.82-3.31-12.79-3.54-19.55-1.56-7.87 2.66-14.58 5.13-21.63-16.68-17.41-40.04 4.61-59.46-7.54-10.05-0.89-3.26 13.93-11.57 15.63m175.87-10.04c9.12 22.48 11.22 47.15 21.98 69.06 5.31-9.88 7.28-21.29 13.91-30.49 1.37-3.04 6.36-7.06 3.02-10.42-11.75-11.05-26.88-17.42-38.91-28.15m-216.41 16.29c-17.65 7.99-30.05 24.48-38.37 41.49 13.72 15.04 25.05 33.84 44.31 42.6 3.89 0.9 0.45-5.66-0.44-7.44-11.78-15.17-17.09-35.01-14.91-53.86 2.22-7.01 12.28-18.31 9.41-22.79m264.83 6.68c-6.63 19.99-17.93 38.04-25.48 57.61 23.11-9.81 22.7-38.22 25.48-57.61m-45.14 3.73c-10.22 25.17-12.38 52.7-22.22 77.98 12.65-3.89 25.57-7.61 36.79-14.92-5.55-20.78-10.75-42.42-14.57-63.06m-275.33 22.3c14.7 22.93 24.89 58.79 57.36 59.38-23.72-15.32-36.07-41.63-57.36-59.38m90.29 10.96c-6.59 18.79-20.19 34.56-25.83 53.6 16.18 5.44 32.98 9.32 50.16 8.86-12.53-18.74-12.98-44.22-24.33-62.46m114.97 4.12c-2.56 18.05-4.34 38.45-4.67 57.41 10.02 2.22 18.68-4.15 27.39-7.93-6.68-16.48-14.52-34.88-22.72-49.48m-56.78 3.13c-5.08 19.41-9.46 39.13-14.25 58.61 12.32-0.48 26.93 1.14 37.81-0.77-7.75-18.8-15.08-41.13-23.56-57.84m159.26 11.18c-13.27 9.29-23.49 23.47-39.54 28.45-28.6 10.33-58.23 17.79-87.36 26.54-28.53-1.7-57.23-2.28-85.75-4.26-21.17-8.22-42.11-17.12-63.48-24.81-5.69-1.53 1.23 4.9 3.02 6.03 37.69 41.88 100.14 45.38 152.76 42.78 45.78-9.49 94.06-30.33 119.84-71.29 0.51-1.06 3.2-5.14 0.51-3.44m-196.9 3.63c3.7 7.59-1.12 23.87 10.21 24.66 8.07 8.42 23.77-8.35 13.79-16.55-7.91-2.96-16.24-4.71-24-8.11m74.05 8.19c-5.73 4.49-11.44 1.93-17.54 0.88-2.26 9.31 8.46 13.09 13.65 18.68 3.89-3.4 8.33-5.15 13.93-4.31 0.79-8.27 2.84-20.72-10.04-15.25m59.77 9.99c-4.91 3.09-15.05-1.19-11.52 8.55 0.16 14.21 14.71-4.55 11.52-8.55m-124.65 9.79c1.64 4.46-3.81 16.59 4.18 15.95 8.11 1.8 5.37-8.68 8.88-13.12-4.31-1.12-8.59-2.54-13.06-2.83m68.56 0.21c-6.69 0.77-16.65 3.09-11.29 12.25 8.15 9.6 21.75-7.95 11.29-12.25m-68.55 146.61c-25.41-7.69-55.07-26.06-46.92-57.44-2.67 3.68-6.66 13.96-11.11 18.41-5.42-0.46-1.91-6.71 1.15-8.19-7.38-5.96-16.94-8.01-25.12-12.62 2.63 8.23 9.37 14.65 15.02 19.96-6.22 3.32-17.43-1.42-24.21 1.5 7.27 5.27 16.72 3.06 25.01 3.01-1.79 7.96-10.35 11.06-14.6 17.39 7.6-1.93 13.48-8.8 21.52-8.75 25.26 6.89 43.62 31.48 48.94 56.12-34.26 54.96-81.73 99.68-118.12 153.04-19.94 23.55-27.81 54.15-40.04 81.98-4.7 19.64-6.44 39.95-10.19 59.81 2.42 26.73 10.47 52.85 22.81 76.66 5.05 21.08 24.07 40.35 43.16 51.41 1.19 0.18 4.6 1.85 3.04-0.58-9.83-18.18-21.73-35.33-31.4-53.59-3.59-20.92-6.57-42.03-9.45-63.07 6.32-30.78 12.67-61.68 19.31-92.36 9.29-14.57 16.98-29.93 22.77-46.22 26.2-45.63 57.17-88.15 89.09-129.93 8.42-9.79 17.96-21.1 31.88-22.01 22.42 14.71 29.63 43.01 39.79 67.26 31.27 46.4 54.96 97.31 79.62 147.4 5.56 19.52 10.3 39.35 13.73 59.38 4.56 57.97-20.45 115.57-63.86 153.9-8.74 4.52-28.96 18.9-10.62 17.01 38.63-16.75 74.89-41.56 97.73-77.71 1.74-3.88 5.36-8.58 3.1-12.97 12.57-25.77 18.71-54.41 15.95-83.16-7.22-27.85-13.56-56.14-24.66-82.81-10.03-16.32-19.02-33.21-27.79-50.22-31.25-41.36-64.93-81.55-88.22-128.14-2.27-15.3-3.28-30.77-5.07-46.12 19.74-18.01 42.69-31.95 64.83-46.73 6.52-2.66 31.62 6.64 15.78-5.02 9.77-4.7 21.16-9.4 29.12-15.52-8.25 1.13-16.45 2.67-24.69 3.85-3.99-4.5-5.42-10.46-1.37-15.25-10.86 4.66-4.74 19.33-10.93 25.31-8.95-2.9-4.89-15-10.25-21.24-4.23 6.78 5.39 22.12-5.5 24.51-19.69 5.92-31.8 25.2-52.21 29.71-8.92 2.03-10.79-8.19-13.45-14.25 7.12-15.08 8.56-38.04-0.51-53.04-21.4 20.71-17.48 54.86-33.06 79.32m549.58-66.08c-4.13 4.36-6.73 10.05-11.37 13.92 2.14-3.46-0.93-4.61-1.68-0.94-15.64 18.71-31.01 39.75-54.33 49.14-35.36 19.97-76.47 23.85-114.49 36.48-40.52 15.87-85.98 22.73-119.6 52.47-24.69 22.94-54.42 41.16-73.59 69.44 0.43 5.17 13.55-0.42 17.8 1.57 5.83 3.18 17.19 1.16 24.66 4.01 18.01 11.65 34.65 25.27 51.14 38.92 9.28-6.99 11.62-19 15.79-29.12 13.67-18.51 28.57-35.27 43.55-52.47 56.69-34.51 123.56-48.56 179.44-84.58 30.55-22.82 43.07-62.11 42.68-98.84m-36.96 101.54c-9.28 4.97-18.32 10.42-27.46 15.65 6.87 11.4 24.97-15.05 27.46-15.65m-29.21 16.89c-9.6 7.02-21.44 9.75-31.56 15.52 9.62 8.35 20.22-6 30.35-8.87 4.81 0.17 4.31-6.1 1.21-6.65m-487.46 3.76c-20.59 22.15-35.49 49.21-52.48 74.2-3.94 6.39 6.65 3.24 10.27 2.4 32.58-13.6 68.78-10.1 102.13-1.5-6.07-16.86-11.39-34.75-23.59-48.38-8.34-13.64-15.34-34.84-36.33-26.72m452.59 12.31c-10.16 3.77-20.15 7.98-30.32 11.67-4.12 1.23-0.78 6.2 0.27 8.79 13.32-1.2 25.87-7.2 36.41-15.25 0.64-2.75-3.75-6.09-6.36-5.21m-35.18 13.92c-11.43 4.98-23.36 9-34.26 15.08 0.35 2.16-0.16 7.75 3.39 5.89 11.51-4.47 22.5-10.35 34.53-13.41-0.82-2.42-1.34-6.96-3.66-7.56m-37.92 15.99c-11.47 4.91-21.81 12.32-33.01 17.87 0.56 3.29 2.19 6.34 2.48 9.76 10.44-7.12 21.07-14.01 32.3-19.9 3.47-1.15 1.35-8.59-1.77-7.73m-36.8 20.12c-10.87 4.19-17.17 14.35-24.57 22.65 1.67 3.53 6.4 4.93 8.03 8.8 4.94-7.62 11.15-14.14 18.36-19.67 4.21-2.2 4.1-13.54-1.82-11.78m-337.95 7.13c-21.35 0.04-41.65 7.73-61.81 12.04-11.25 19.56-28.87 35.57-37.56 56.39 64.13-4.74 128.46-2.99 192.62 0.25-13.08-19.36-26.49-39.83-37.4-61.08-18.36-4.02-36.88-8.6-55.85-7.6m311.5 17.61c-14.5 12.65-26.17 33.84-13.34 49.73 5.44-13.42 12.02-26.46 19.89-38.62 2.12-4.96-1.81-9.96-6.55-11.11m-164.93 40.71c26.9 39.27 44.94 85.66 46.06 133.59-1.27 23.93-2.72 48.39-10.31 71.31-5.11 21.86-20.39 39.18-32.56 57.4-11.84 11.58-29.24 20.67-32.25 38.42 3.07 0.56 4.65-3.47 7.27-4.52-15.9 21.86-45.79 37.05-54.04 64.99 12.11 31.36 49.95 33.23 78.75 36.57 33.15-4.25 69.31-9.2 99.64 7.88 33.07 14.75 71.24 27.43 107.08 16.68-2.65-8.54 4.67-18.02 1.3-25.25 9.21-14.25 19.96-27.29 32.2-39.01-14.42-7.02-29.71-12.53-44.46-18.99-30.62-3.07-61.81-1.03-91.94 5.84-3.82-0.22-14.79 4.81-13.83-2.48 13.17-6.94 28.79-2.2 42.19-8.35-12.12-10.17-29.99-9.61-44.25-15.86-27.98-9.66-62.81-14.31-87.81 4.93 6.4-7.86 16.45-13.76 23.64-19.05-10.55 2.62-21.33 4.86-31.21 9.52-2.24 1.07-1.47-1.75-1.4-2.97 13.22-10.43 30.47-13.73 46.99-12.93 39.22-60.47 71.82-126.91 84.31-198.13-3.03-22.51-5.9-45.04-8.12-67.64 0.66-5.73-4.98-8.49-8.08-12.17-13.72-13.06-26.55-28.95-45.49-34.37-20.72-12.11-50.15-4.14-63.59 14.59m-346.03 10.23c-12.32 18.13-25.21 35.91-36.91 54.46-2.7 19.84-6.18 39.62-8.11 59.56 1 21.96 6.42 43.51 8.05 65.45 15.22-4.42 36.04 0.44 46.57 12.67-11.73 0.71-25.55-9.42-38.75-6.74 11.52 5.23 24.56 7 34.75 15.05 0.21 1.39 0.9 4.05-1.47 3.19-13.13-3.11-26.12-6.96-39.09-10.66-25.46 12.11-54.79 15.5-82.48 8.11-48.83 0.55-105.46-4.07-144.58 30.9 4.19 6.83 12.62 8.54 18.86 12.92 7.88 8.78 8.26 22.92 14.01 30.99 12.92-16.64 30.76-27.83 47.72-40.08 3-3.05-2.9-1.39-4.71-1.67 7.77-5.36 15.61-13.03 26.05-8.76-20.62 14.2-43.34 27.95-54.75 51.28 6.79 3.6 14.2 6.52 18.45 13.36 1.17 5.41 7.47 8.01 8.92 13.36-1.34 16.06 24.29 9.29 33.1 3.93 0.43-12.13 9.42-21.74 9.7-33.47 12.71-16.7 28.39-33.14 47.11-42.16-16.77 21.26-40.38 40.19-46.37 68.26 15.19-2.61 29.21 1.64 42.72 7.76 1.15 4.31 8.02 3.46 7.91 8.25-5.63-0.42-9.68-5.63-15.52-5.35-11.46-3.01-23.38-3.24-35.14-2.68 0.05 20.7-4.19 48.93 17.37 61.18-0.16 3.2 1.13 10.87 5.41 9.1-2.11-21.58 17.28-35.61 31.17-48.34 5.94-4.54-3.07-8.37-3.11-13.14 8.33 5.85 22.59 3.83 27.04-5.91 6.27-10.92 18.64-19.64 16.05-33.85-3.02-7.03 5.27-5.97 4.95-1.11 21.27-8.11 45.39-7.15 67.04-10.15 23.05 5.45 45.06 17.68 68.94 18.23 4.7 2.76 5.19-1.1 4.97-3.65-14.01-13.43-32.89-22.78-41.23-41.12-27.27-27.23-28.47-68.27-38.18-103.84 3.03-45.41 16.75-91.72 35.3-131.74 3.87-7.17 8.73-14.42 9.95-22.57-22.56-8.63-45.47 3.86-61.71 18.98m488.8-17.14c-3.7 7.48-7.29 15.04-11.85 22.05-9.65 10.21-0.38 25.29 4.93 35.04 4.91-18.45 22.37-39.55 6.92-57.09m-342.36 16.51c-15.86 1.8-31.82 2.74-47.79 2.55-10.77 16.95-17.7 35.99-24.6 54.72 36.3 23.38 81.05 21.7 122.59 23.04 26.14-3.22 53.92 0.77 78.49-10.59 14.31-4.82 28.6-9.75 42.59-15.45-5.18-16.13-13.09-31.38-19.07-47.26-3.2-9.65-16.35-2.26-23.49-4.52-42.79-3.99-85.8-3.5-128.72-2.49m169.94 56.92c-15.67 6.45-31.75 11.84-47.82 17.2-21.53 8.78-45.42 4.98-68.04 8.04-43.09-1.84-89.32 0.63-127.49-22.54-6.87 24.88-13.63 50.24-13.96 76.21 43.43 23.06 93.28 25.12 141.33 28.08 45.59-7.6 94.21-10.75 134.21-36 1.13-20.67-8.08-40.22-11.66-60.38-1.45-3.03-1.55-12.65-6.57-10.61m17.02 73.96c-39.93 24.15-87.63 27.88-132.77 35.26-47.57-4.11-96.91-4.6-140.14-27.36-4.39-1.47-1.91 6.92-2.45 8.4 2.89 23.31 2.6 47.9 14.13 69.02 14.38 13.56 34.38 18.52 51.67 27.42 37.05 6 74.32 16.07 112 8.93 29.99-6.84 57.67-21.31 83.83-37.25 14.01-25.51 20.72-58.4 13.73-84.42m-105.79 124.23c-34.91 6.02-69.29-5.27-103.74-9.51-17.44-7.67-35.82-14.56-51.21-25.77 0.54 5.28 2.85 10.2 5.44 14.8 16.46 24.35 37.51 50.27 67.17 58.5 17.58 6.84 35 15.41 54.64 11.39 42.46 5.18 81.66-21.6 100.85-58.09 6.95-8.13 14.99-17.25 18.08-27.84-28.83 15.22-57.93 33.45-91.23 36.52m-495.94-15.8c-6.15 11.61-18.09 19.19-21.81 32.15-2.59 8.39-13.05 15.54-8.58 25.05 1.36 3.27-3.13 14.04 2.72 9.04 14.97-14.79 36.92-18.96 52.68-32.68 1.64-6.4-2.47-12.07-6.66-16.43-0.6-6.06-5.56-9.8-10.31-12.86 5.9-3.11-6.05-8.33-8.04-4.27m48.51 46.42c-10.16 13.38-17.01 28.84-22.44 44.69-0.5 8.61 1.51 24.67 5.13 28.12 15.29-13.26 34.26-24.04 44.67-41.87 1.31-6.64-1.33-14.02-6.26-18.52-6.34-5.12-13.33-10.08-21.1-12.42m293.2 7c-4.38 4.97-0.18 15.76-1.61 22.49 8.95-2.15 12.82-13.05 17.8-20.14 0.83-6.59-12.35-0.79-16.19-2.35m485.96 31.71c10.2 2.73 21.21 14.82 34.11 16.34 6.82 5.9 7.88 18.17 15.26 22.66 9.12-8.27 21.77-11.27 31.31-18.83-25.11-12.14-52.27-22.72-80.68-20.17m68.3 4.18c8.59 8.45 18.37 15.62 27.41 23.57 4.9-5.1 14.68-5.75 17.66-11.44-14.43-5.06-29.83-9.25-45.07-12.13m-12.12 37.58c-12.57 4.39-3.56 14.12-1.66 22.24 15.21 2.68 12.09 22.36 23.99 29.14 3.16 2.99 9.89 9.38 10.4 1.28 11.44-22.06 7.77-48.39-2.35-70.25-10.24 5.61-20.41 11.51-30.38 17.59m48.2-8.95c-9.83 8.09-1.41 25.52 2.57 35.88 13.14 2.76 18.93 19.68 29.59 21.49 0.78 1.23 1.43 1.18 1.96-0.16 8.7-20.88-0.44-45.35-14.1-61.82-6.03-8.94-15.24-0.83-20.02 4.61m-400.9-7.53c-12.13 3.23-15 14.93-20.18 24.61 6.8-3.93 14.3-6.32 21.39-9.62-7.77-3.33-0.73-12.43-1.21-14.99m305.27 46.03c-4.23 1.97-1.06-6.54-6.86-2.88 2.24 10.16 8.93 21.8 19.41 25.92 7.69 4.91 19.27 5.63 22.48 15.6 1.02 4.37 7.78 1.52 5.53-2.42 7.87-25.01 1.92-54.75-15.04-74.2-12.26 8.18-32.29 20.59-25.52 37.98z"/>
<path fill="#b5fc99" d="m513.86 79.63c-4.8-16.46 7.84-0.08 15.08 0.3-4.63 6.2 3.84 13.3-5.2 16.95-6.8-1.24-5.32-11.15-9.02-15.81-0.21-0.36-0.64-1.08-0.86-1.44z"/>
<path fill="#c0fbc1" d="m527.58 71.08c14.71-1.65-0.31 15.59 0 0z"/>
<path fill="#817ffb" d="m549.35 73.44c10.66 4.13 23.29 13.63 24.45 26.42-16.63 1.7 12.76 14.35 13.46 19.96-16.16-10.42-36.16-15.94-54.14-18.71 4.5-13.14 16.73 7.26 21.77-4.21-7.55 0.04-14.22-3.5-21.46-5 3.68-7.06 6.97-16.92 15.92-18.46z"/>
<path fill="#807ffc" d="m494.03 81.18c2.5 6.58 6.66-4.39 10.7-4 2.83 1.6 5.69 2.94 9.13 2.45 0.22 0.36 0.65 1.08 0.86 1.44 6.09 16.62-11.27 21.18-18.45 31.09 4.84 2.11 15.79-11.74 20.43-6.6-21.94 11.98-38.67 31.03-58.74 45.41 1.2-15.51 21.73-14.77 25.03-29.29-1.32-4.19-7.22-0.48-10.11 0.21 1.98-15.78 12.05-28.42 21.15-40.71z"/>
<path fill="#80fe80" d="m576.84 91.19c17.28 15.52 32.09 34.66 40.09 56.68-0.6 2.33-3.54 3.45-5.05 5.32 23.77 3.93 49.74 10.62 63.98 31.95 20.04 16.82 33.17 40.44 35.19 66.69-31.47-4.95-62.74-11.55-94.33-15.71-38.25 0.93-75.88 8.85-113.29 16.28-19.76 7.51-39.49 15.14-59.2 22.8-17.84 10.2-35.03 21.63-52.91 31.75-7.32-7.83-4.81-20.08-1.7-29.41 13.52-36.03 30.97-71.89 61.7-96.32 5.22-7.31-5.37-1.12-7.59 1.45 0.93-5.23 1.99-10.45 3.18-15.63 6.91 7.69 17.61 15.15 28.21 12.35-5.12-3.35-1.48-3.39 3.42-3.54-0.23-5.55-13.27 1.74-8.87-4.93-2.47-2.32-4.56-5.44-7.87-6.61-1.48 3.84 8.98 9.21-0.12 7.51-3.91-3.54-7.41-8.33-13.34-8.14 0.27-13.76 7.5-28.04 15.61-37.29-2.68 11.41-15.06 20.22-10.63 33.31 2.61-0.45 8.55 2.2 9.2-2.23 14.35 18.66 54.64 11.67 64.58-12.41 12.9 19.91 48.87 18.85 61.32-1.96-0.97-3.13 3.07-14.45 6.29-7.59 6.2 2.75 4.73-8.12 3.38-11.36-8.34-10.1-15.35-21.28-21.25-32.96m24.64 50.05c-7.59 4.91-11.25 13.48-17.32 19.87 7.74-3.51 23.14-10.48 17.32-19.87m-41.78 23.29c-13.21-0.81-11.91 22.08 1.25 19.55 14.41 2.12 10.62-22.94-1.25-19.55m-54.81 7.89c-3.64 2.57-13.64 4.06-7.88 9.48 4.97 7.97 16 7.47 19.25-1.74 6.15-6.78-6.75-10.37-11.37-7.74z"/>
<path fill="#fefefe" d="m532.58 105.12c20.28 0.61 37.72 12.18 56.3 18.93-2.97 19.92-22.38 29.62-41.17 28.51-9.72-1.75-21.68-15.5-6.79-19.45 14.34-5.84-2.28-27.53-12.89-17.91 1.39-3.41 2.57-6.96 4.55-10.08z"/>
<path fill="#fefefe" d="m517.46 109.18c5.19 2.95-2.58 14.69 4.72 18.53-7.17-0.17-14.63 0.13-21.01 3.85-5.84 6.79 2.01 23.13 11.04 18.84-7.83 19.12-35.25 17.49-44.8 1.8 11.91-19.4 34.12-27.57 50.05-43.02z"/>
<path fill="#fdfdfd" d="m509.05 132.04c11.28-2.13-0.91 10.26 0 0z"/>
<path fill="#000500" d="m601.48 141.24c5.82 9.39-9.58 16.36-17.32 19.87 6.07-6.39 9.73-14.96 17.32-19.87z"/>
<path fill="#000101" d="m559.7 164.53c11.87-3.39 15.66 21.67 1.25 19.55-13.16 2.53-14.46-20.36-1.25-19.55z"/>
<path fill="#010201" d="m504.89 172.42c4.62-2.63 17.52 0.96 11.37 7.74-3.25 9.21-14.28 9.71-19.25 1.74-5.76-5.42 4.24-6.91 7.88-9.48z"/>
<path fill="#fefefe" d="m572.9 244.5c5.24-0.56 10.53-0.77 15.82-0.82-8.73 21.34-14.12 43.78-18.71 66.28-11.57-17.97-13.11-41.64-22.85-61.26 7.83-1.36 17.61-0.72 25.74-4.2z"/>
<path fill="#b9013a" d="m594.68 244.07c13.4-0.2 26.81-0.19 40.22 0.04-5.75 27.48-20.92 53.34-21.55 82.06-2.37-0.62-11.35 3.23-8.95-2.48 5.81-9.2 3.09-20.66 3.8-30.92-7.29-4.89-15.7-7.87-23.98-10.68-2.33-13.8 7.88-25.05 10.46-38.02z"/>
<path fill="#fefefe" d="m641.16 244.06c10.13 3.34 22.98 3.13 31.79 8.75-17.28 17.43-33.26 36.16-50.89 53.18 3.82-21.51 16.95-39.91 19.1-61.93z"/>
<path fill="#b8013a" d="m538.56 253.42c6.01-1.97 4.64 8.15 6.52 11.51 3.75 15.77 16.2 28 20.25 43.77 2.54 9.39-9.83 17.14-18.02 13.74-1.86-9.43 0.9-18.4 3.6-27.26-7.95-12.66-21.97-6.84-32.24-1.5-19.23 3.94 2.08 46.94-23.66 29.12 5.17-21.15 8.83-43.18 19.14-62.58 7-5.61 16.73-2.75 24.41-6.8z"/>
<path fill="#fefefe" d="m683.49 256.36c8.66 5.05 19.57 1.6 27.88 7.44 4.69 19.31 9.48 38.67 13.71 58.12-16.36-20.11-28.43-43.32-41.59-65.56z"/>
<path fill="#b9013a" d="m677.31 257.11c3.4 11.75 17.84 24.54 14.07 38.97-13.67 8.85-20.16 27.31-37.1 30.78-10.99-10.04-24.43-5.59-37.18-2.82 21.1-21.4 37.87-46.68 60.21-66.93z"/>
<path fill="#fefefe" d="m503.51 260.42c1.32 23.8-15.13 48.17-17.67 73.23-12.9-13.85-18.63-36.49-28.69-53.52 13.06-12.21 32.77-8.41 46.36-19.71z"/>
<path fill="#fefefe" d="m445.5 284.46l1.4-0.52c-17.15 26.54-34.35 54.69-55.26 77.8 1-14.61-0.13-33.38 4.25-48.87 15.41-10.97 31.93-21.19 49.61-28.41z"/>
<path fill="#b9003a" d="m452.15 283.81c9.8 11.99 12.58 28.17 23.47 39.44-12.98 13.26-37.06 37.83-55.48 16.41 7.37-20.22 19.36-38.53 32.01-55.85z"/>
<path fill="#ff7fc0" d="m629.48 324.49c18.72 2.12 38.63 21.95 29.06 42.05-8.47 23.42-9.54 56.59-35.71 67.48-8.15 3.61-10.24-8.95-13.66-14.16 8.17-14.24 36.97-8.89 34.94-30.59-6.97 10.45-20.28 21.84-34.63 21.68-18.45-4.03-5.12-33.26-20.34-35.6-1.16 14.56 1.3 29.62-0.71 43.98-17.83 8.82-38.87-11.97-28.54-29.39 9.68-14.87 0.66-30.98-3.84-45.82 16.37-26.05 50.75-3.91 73.43-19.63z"/>
<path fill="#ff7fc0" d="m485.03 347.23c8.31-1.7 1.52-16.52 11.57-15.63 19.42 12.15 42.78-9.87 59.46 7.54-2.47 7.05-6.69 13.76-5.13 21.63 0.23 6.76 7.7 12.73 3.54 19.55-5.7 12.7-4.09 27.15 0.43 39.93-9.47-8.07-12.48-20.3-16.94-31.32-8.19 9.41-2.87 34.35-21.07 30.29-21.45 2.29-31.43-22.45-32.02-39.83-9.19-3.33-9.28 9.07-9.41 14.79-3.98-1.67-5.57-5.93-7.92-9.21-2.16 6.32 0.69 12.44 3.36 18.09-4.43 6.79-8.88 13.75-14.33 19.77-8.01 1.64-9.22-7.07-9.44-12.88 2.81 2.82 5.56 5.86 9.06 7.87-2.76-12-10.99-22.56-8.08-35.64-0.84-10.43-3.08 6.85-3.9 10.03-0.92-17.14 4.29-33.73 14.55-47.39 2.9-9.93 13.3-10.03 21.36-12.83 1.63 4.97-1.22 12.68 4.91 15.24z"/>
<path fill="#b9013a" d="m660.9 337.19c12.03 10.73 27.16 17.1 38.91 28.15 3.34 3.36-1.65 7.38-3.02 10.42-6.63 9.2-8.6 20.61-13.91 30.49-10.76-21.91-12.86-46.58-21.98-69.06z"/>
<path fill="#b9013a" d="m444.49 353.48c2.87 4.48-7.19 15.78-9.41 22.79-2.18 18.85 3.13 38.69 14.91 53.86 0.89 1.78 4.33 8.34 0.44 7.44-19.26-8.76-30.59-27.56-44.31-42.6 8.32-17.01 20.72-33.5 38.37-41.49z"/>
<path fill="#fdfdfd" d="m709.32 360.16c-2.78 19.39-2.37 47.8-25.48 57.61 7.55-19.57 18.85-37.62 25.48-57.61z"/>
<path fill="#fefefe" d="m664.18 363.89c3.82 20.64 9.02 42.28 14.57 63.06-11.22 7.31-24.14 11.03-36.79 14.92 9.84-25.28 12-52.81 22.22-77.98z"/>
<path fill="#fefafe" d="m444.21 392.21c0.82-3.18 3.06-20.46 3.9-10.03-2.91 13.08 5.32 23.64 8.08 35.64-3.5-2.01-6.25-5.05-9.06-7.87-2-5.67-5.35-11.61-2.92-17.74z"/>
<path fill="#fdfdfd" d="m388.85 386.19c21.29 17.75 33.64 44.06 57.36 59.38-32.47-0.59-42.66-36.45-57.36-59.38z"/>
<g fill="#fefefe">
<path d="m479.14 397.15c11.35 18.24 11.8 43.72 24.33 62.46-17.18 0.46-33.98-3.42-50.16-8.86 5.64-19.04 19.24-34.81 25.83-53.6z"/>
<path d="m594.11 401.27c8.2 14.6 16.04 33 22.72 49.48-8.71 3.78-17.37 10.15-27.39 7.93 0.33-18.96 2.11-39.36 4.67-57.41z"/>
<path d="m537.33 404.4c8.48 16.71 15.81 39.04 23.56 57.84-10.88 1.91-25.49 0.29-37.81 0.77 4.79-19.48 9.17-39.2 14.25-58.61z"/>
</g>
<path fill="#01fe02" d="m696.59 415.58c2.69-1.7 0 2.38-0.51 3.44-25.78 40.96-74.06 61.8-119.84 71.29-52.62 2.6-115.07-0.9-152.76-42.78-1.79-1.13-8.71-7.56-3.02-6.03 21.37 7.69 42.31 16.59 63.48 24.81 28.52 1.98 57.22 2.56 85.75 4.26 29.13-8.75 58.76-16.21 87.36-26.54 16.05-4.98 26.27-19.16 39.54-28.45z"/>
<path fill="#fd7fbf" d="m499.69 419.21c7.76 3.4 16.09 5.15 24 8.11 9.98 8.2-5.72 24.97-13.79 16.55-11.33-0.79-6.51-17.07-10.21-24.66z"/>
<path fill="#fd7fbf" d="m573.74 427.4c12.88-5.47 10.83 6.98 10.04 15.25-5.6-0.84-10.04 0.91-13.93 4.31-5.19-5.59-15.91-9.37-13.65-18.68 6.1 1.05 11.81 3.61 17.54-0.88z"/>
<path fill="#b20339" d="m633.51 437.39c3.19 4-11.36 22.76-11.52 8.55-3.53-9.74 6.61-5.46 11.52-8.55z"/>
<path fill="#b5023a" d="m508.86 447.18c4.47 0.29 8.75 1.71 13.06 2.83-3.51 4.44-0.77 14.92-8.88 13.12-7.99 0.64-2.54-11.49-4.18-15.95z"/>
<path fill="#b6023a" d="m577.42 447.39c10.46 4.3-3.14 21.85-11.29 12.25-5.36-9.16 4.6-11.48 11.29-12.25z"/>
<path fill="#40ff40" d="m508.87 594c15.58-24.46 11.66-58.61 33.06-79.32 9.07 15 7.63 37.96 0.51 53.04 2.66 6.06 4.53 16.28 13.45 14.25 20.41-4.51 32.52-23.79 52.21-29.71 10.89-2.39 1.27-17.73 5.5-24.51 5.36 6.24 1.3 18.34 10.25 21.24 6.19-5.98 0.07-20.65 10.93-25.31-4.05 4.79-2.62 10.75 1.37 15.25 8.24-1.18 16.44-2.72 24.69-3.85-7.96 6.12-19.35 10.82-29.12 15.52 15.84 11.66-9.26 2.36-15.78 5.02-22.14 14.78-45.09 28.72-64.83 46.73 1.79 15.35 2.8 30.82 5.07 46.12 23.29 46.59 56.97 86.78 88.22 128.14 8.77 17.01 17.76 33.9 27.79 50.22 11.1 26.67 17.44 54.96 24.66 82.81 2.76 28.75-3.38 57.39-15.95 83.16-4.01 4.41-8.19 8.74-11.09 14.01-6.7 15.57-25.88 22.33-41.77 21.3-11.23 13.76-22.12 28.74-37.35 38.36 43.41-38.33 68.42-95.93 63.86-153.9-3.43-20.03-8.17-39.86-13.73-59.38-24.66-50.09-48.35-101-79.62-147.4-10.16-24.25-17.37-52.55-39.79-67.26-13.92 0.91-23.46 12.22-31.88 22.01-31.92 41.78-62.89 84.3-89.09 129.93-5.79 16.29-13.48 31.65-22.77 46.22-6.64 30.68-12.99 61.58-19.31 92.36 2.88 21.04 5.86 42.15 9.45 63.07 9.67 18.26 21.57 35.41 31.4 53.59 1.56 2.43-1.85 0.76-3.04 0.58-2.26-10.03-10.85-17.91-15.09-27.34-1.63-8.4-12.15-3.2-15.42-9.65-3.16-5.71-8.16-9.85-12.65-14.42-12.34-23.81-20.39-49.93-22.81-76.66 3.75-19.86 5.49-40.17 10.19-59.81 12.23-27.83 20.1-58.43 40.04-81.98 36.39-53.36 83.86-98.08 118.12-153.04-5.32-24.64-23.68-49.23-48.94-56.12-8.04-0.05-13.92 6.82-21.52 8.75 4.25-6.33 12.81-9.43 14.6-17.39-8.29 0.05-17.74 2.26-25.01-3.01 6.78-2.92 17.99 1.82 24.21-1.5-5.65-5.31-12.39-11.73-15.02-19.96 8.18 4.61 17.74 6.66 25.12 12.62-3.06 1.48-6.57 7.73-1.15 8.19 4.45-4.45 8.44-14.73 11.11-18.41-8.15 31.38 21.51 49.75 46.92 57.44z"/>
<path fill="#40ff40" d="m1058.4 527.92c0.39 36.73-12.13 76.02-42.68 98.84-55.88 36.02-122.75 50.07-179.44 84.58-14.98 17.2-29.88 33.96-43.55 52.47-4.17 10.12-6.51 22.13-15.79 29.12-16.49-13.65-33.13-27.27-51.14-38.92-7.47-2.85-18.83-0.83-24.66-4.01 27.54-1.07 37.09-35.32 58.72-48.11 17.81-9.13 29.86-25.99 47.13-35.86 67.12-31.55 143.35-40.54 207.82-78.13 12.95-13.15 25.31-29.11 30.54-47 0.75-3.67 3.82-2.52 1.68 0.94 4.64-3.87 7.24-9.56 11.37-13.92z"/>
<path fill="#80fe80" d="m1045.4 540.9c-5.23 17.89-17.59 33.85-30.54 47-64.47 37.59-140.7 46.58-207.82 78.13-17.27 9.87-29.32 26.73-47.13 35.86-21.63 12.79-31.18 47.04-58.72 48.11-4.25-1.99-17.37 3.6-17.8-1.57 19.17-28.28 48.9-46.5 73.59-69.44 33.62-29.74 79.08-36.6 119.6-52.47 38.02-12.63 79.13-16.51 114.49-36.48 23.32-9.39 38.69-30.43 54.33-49.14z"/>
<path fill="#dada2c" d="m1021.5 629.46c-2.49 0.6-20.59 27.05-27.46 15.65 9.14-5.23 18.18-10.68 27.46-15.65z"/>
<path fill="#dadb28" d="m992.28 646.35c3.1 0.55 3.6 6.82-1.21 6.65-10.13 2.87-20.73 17.22-30.35 8.87 10.12-5.77 21.96-8.5 31.56-15.52z"/>
<path fill="#fffe3f" d="m504.82 650.11c20.99-8.12 27.99 13.08 36.33 26.72 12.2 13.63 17.52 31.52 23.59 48.38-33.35-8.6-69.55-12.1-102.13 1.5-3.62 0.84-14.21 3.99-10.27-2.4 16.99-24.99 31.89-52.05 52.48-74.2z"/>
<path fill="#dcdc21" d="m957.41 662.42c2.61-0.88 7 2.46 6.36 5.21-10.54 8.05-23.09 14.05-36.41 15.25-1.05-2.59-4.39-7.56-0.27-8.79 10.17-3.69 20.16-7.9 30.32-11.67z"/>
<path fill="#dbdb23" d="m922.23 676.34c2.32 0.6 2.84 5.14 3.66 7.56-12.03 3.06-23.02 8.94-34.53 13.41-3.55 1.86-3.04-3.73-3.39-5.89 10.9-6.08 22.83-10.1 34.26-15.08z"/>
<path fill="#dbdb23" d="m884.31 692.33c3.12-0.86 5.24 6.58 1.77 7.73-11.23 5.89-21.86 12.78-32.3 19.9-0.29-3.42-1.92-6.47-2.48-9.76 11.2-5.55 21.54-12.96 33.01-17.87z"/>
<path fill="#dcdc20" d="m847.51 712.45c5.92-1.76 6.03 9.58 1.82 11.78-7.21 5.53-13.42 12.05-18.36 19.67-1.63-3.87-6.36-5.27-8.03-8.8 7.4-8.3 13.7-18.46 24.57-22.65z"/>
<path fill="#ffff3f" d="m509.56 719.58c18.97-1 37.49 3.58 55.85 7.6 10.91 21.25 24.32 41.72 37.4 61.08-64.16-3.24-128.49-4.99-192.62-0.25 8.69-20.82 26.31-36.83 37.56-56.39 20.16-4.31 40.46-12 61.81-12.04z"/>
<path fill="#dcdc20" d="m821.06 737.19c4.74 1.15 8.67 6.15 6.55 11.11-7.87 12.16-14.45 25.2-19.89 38.62-12.83-15.89-1.16-37.08 13.34-49.73z"/>
<path fill="#40ff40" d="m656.13 777.9c13.44-18.73 42.87-26.7 63.59-14.59 18.94 5.42 31.77 21.31 45.49 34.37 3.1 3.68 8.74 6.44 8.08 12.17 2.22 22.6 5.09 45.13 8.12 67.64-12.49 71.22-45.09 137.66-84.31 198.13-16.52-0.8-33.77 2.5-46.99 12.93-0.07 1.22-0.84 4.04 1.4 2.97 9.88-4.66 20.66-6.9 31.21-9.52-7.19 5.29-17.24 11.19-23.64 19.05 25-19.24 59.83-14.59 87.81-4.93 14.26 6.25 32.13 5.69 44.25 15.86-13.4 6.15-29.02 1.41-42.19 8.35-0.96 7.29 10.01 2.26 13.83 2.48 30.13-6.87 61.32-8.91 91.94-5.84 14.75 6.46 30.04 11.97 44.46 18.99-12.24 11.72-22.99 24.76-32.2 39.01-13.52 10.65-33.9 3.24-49.87 3.94-29.78 0.31-56.37-13.52-84.06-22.24-35.19-2.8-73.08 4.29-105.63-13.03-6.65-6.52-9.84-16.84-10.23-26.06 3.36-5.54 10.35-8.68 12.02-15.41 7.66-23.14 27.96-38 42.26-56.69 17.84-19 30.33-43.03 35.11-68.66 10.28-20.39 6.52-46.04-4.48-65.33-1.12-47.93-19.16-94.32-45.97-133.59z"/>
<path fill="#40ff40" d="m310.1 788.13c16.24-15.12 39.15-27.61 61.71-18.98-1.22 8.15-6.08 15.4-9.95 22.57-13.72 18.58-33.84 33.12-41.34 55.87-6.37 32.51-12.28 66.21-4.11 98.97 8.95 30.93 17.94 62.08 26.2 93.04-5.67 3.22-13.76-1.31-20.21-1.98-19.56-4.69-39 2.85-57.04 9.71-6.07 3.72-6.98-4.17-9.91-7.51 2.74 18.56-7.05 35.61-20.1 47.89-8.56 3.53-17.9 4.58-26.46 8.13-13.51-6.12-27.53-10.37-42.72-7.76 5.99-28.07 29.6-47 46.37-68.26-18.72 9.02-34.4 25.46-47.11 42.16-9.49 4.93-13.83 18.8-26.34 17.65-8.25 1.17-18.24-6.44-25.38-1.47-4.25-6.84-11.66-9.76-18.45-13.36 11.41-23.33 34.13-37.08 54.75-51.28-10.44-4.27-18.28 3.4-26.05 8.76-18.05 7.17-37.06 21.68-57.02 10.76-6.24-4.38-14.67-6.09-18.86-12.92 39.12-34.97 95.75-30.35 144.58-30.9 27.69 7.39 57.02 4 82.48-8.11 12.97 3.7 25.96 7.55 39.09 10.66 2.37 0.86 1.68-1.8 1.47-3.19-10.19-8.05-23.23-9.82-34.75-15.05 13.2-2.68 27.02 7.45 38.75 6.74-10.53-12.23-31.35-17.09-46.57-12.67-1.63-21.94-7.05-43.49-8.05-65.45 1.93-19.94 5.41-39.72 8.11-59.56 11.7-18.55 24.59-36.33 36.91-54.46z"/>
<path fill="#dcdc1f" d="m798.9 770.99c15.45 17.54-2.01 38.64-6.92 57.09-5.31-9.75-14.58-24.83-4.93-35.04 4.56-7.01 8.15-14.57 11.85-22.05z"/>
<path fill="#ffff3f" d="m456.54 787.5c42.92-1.01 85.93-1.5 128.72 2.49 7.14 2.26 20.29-5.13 23.49 4.52 5.98 15.88 13.89 31.13 19.07 47.26-13.99 5.7-28.28 10.63-42.59 15.45-24.57 11.36-52.35 7.37-78.49 10.59-41.54-1.34-86.29 0.34-122.59-23.04 6.9-18.73 13.83-37.77 24.6-54.72 15.97 0.19 31.93-0.75 47.79-2.55z"/>
<path fill="#01fe02" d="m320.52 847.59c7.5-22.75 27.62-37.29 41.34-55.87-18.55 40.02-32.27 86.33-35.3 131.74 9.71 35.57 10.91 76.61 38.18 103.84 8.34 18.34 27.22 27.69 41.23 41.12 0.22 2.55-0.27 6.41-4.97 3.65-23.88-0.55-45.89-12.78-68.94-18.23-21.65 3-45.77 2.04-67.04 10.15 0.32-4.86-7.97-5.92-4.95 1.11 2.59 14.21-9.78 22.93-16.05 33.85-4.45 9.74-18.71 11.76-27.04 5.91l-0.18-0.77c0.11-4.79-6.76-3.94-7.91-8.25 8.56-3.55 17.9-4.6 26.46-8.13 13.05-12.28 22.84-29.33 20.1-47.89 2.93 3.34 3.84 11.23 9.91 7.51 18.04-6.86 37.48-14.4 57.04-9.71 6.45 0.67 14.54 5.2 20.21 1.98-8.26-30.96-17.25-62.11-26.2-93.04-8.17-32.76-2.26-66.46 4.11-98.97z"/>
<path fill="#ffff3f" d="m626.48 844.42c5.02-2.04 5.12 7.58 6.57 10.61 3.58 20.16 12.79 39.71 11.66 60.38-40 25.25-88.62 28.4-134.21 36-48.05-2.96-97.9-5.02-141.33-28.08 0.33-25.97 7.09-51.33 13.96-76.21 38.17 23.17 84.4 20.7 127.49 22.54 22.62-3.06 46.51 0.74 68.04-8.04 16.07-5.36 32.15-10.75 47.82-17.2z"/>
<path fill="#01fe01" d="m702.1 911.49c11 19.29 14.76 44.94 4.48 65.33-4.78 25.63-17.27 49.66-35.11 68.66-14.3 18.69-34.6 33.55-42.26 56.69-1.67 6.73-8.66 9.87-12.02 15.41 0.39 9.22 3.58 19.54 10.23 26.06 32.55 17.32 70.44 10.23 105.63 13.03 27.69 8.72 54.28 22.55 84.06 22.24 15.97-0.7 36.35 6.71 49.87-3.94 3.37 7.23-3.95 16.71-1.3 25.25-35.84 10.75-74.01-1.93-107.08-16.68-30.33-17.08-66.49-12.13-99.64-7.88-28.8-3.34-66.64-5.21-78.75-36.57 8.25-27.94 38.14-43.13 54.04-64.99-2.62 1.05-4.2 5.08-7.27 4.52 3.01-17.75 20.41-26.84 32.25-38.42 12.17-18.22 27.45-35.54 32.56-57.4 7.59-22.92 9.04-47.38 10.31-71.31z"/>
<path fill="#ffff3f" d="m643.5 918.38c6.99 26.02 0.28 58.91-13.73 84.42-26.16 15.94-53.84 30.41-83.83 37.25-37.68 7.14-74.95-2.93-112-8.93-17.29-8.9-37.29-13.86-51.67-27.42-11.53-21.12-11.24-45.71-14.13-69.02 0.54-1.48-1.94-9.87 2.45-8.4 43.23 22.76 92.57 23.25 140.14 27.36 45.14-7.38 92.84-11.11 132.77-35.26z"/>
<path fill="#02fe02" d="m669.81 1006.8c2.9-5.27 7.08-9.6 11.09-14.01 2.26 4.39-1.36 9.09-3.1 12.97-22.84 36.15-59.1 60.96-97.73 77.71-18.34 1.89 1.88-12.49 10.62-17.01 15.23-9.62 26.12-24.6 37.35-38.36 15.89 1.03 35.07-5.73 41.77-21.3z"/>
<path fill="#03fd03" d="m353.01 994.88c4.49 4.57 9.49 8.71 12.65 14.42 3.27 6.45 13.79 1.25 15.42 9.65 4.24 9.43 12.83 17.31 15.09 27.34-19.09-11.06-38.11-30.33-43.16-51.41z"/>
<path fill="#fefe3f" d="m537.71 1042.6c33.3-3.07 62.4-21.3 91.23-36.52-3.09 10.59-11.13 19.71-18.08 27.84-67.12 43.17-160.57 38.03-221-14.67-2.37-2.86-1.58 1.13-1.66 2.87-2.59-4.6-4.9-9.52-5.44-14.8 15.39 11.21 33.77 18.1 51.21 25.77 34.45 4.24 68.83 15.53 103.74 9.51z"/>
<path fill="#cdcc00" d="m388.2 1022.1c0.08-1.74-0.71-5.73 1.66-2.87 60.43 52.7 153.88 57.84 221 14.67-19.19 36.49-58.39 63.27-100.85 58.09-19.64 4.02-37.06-4.55-54.64-11.39-29.66-8.23-50.71-34.15-67.17-58.5z"/>
<path fill="#02fd03" d="m66.94 1033c19.96 10.92 38.97-3.59 57.02-10.76 1.81 0.28 7.71-1.38 4.71 1.67-16.96 12.25-34.8 23.44-47.72 40.08-5.75-8.07-6.13-22.21-14.01-30.99z"/>
<path fill="#fefef6" d="m41.77 1026.8c1.99-4.06 13.94 1.16 8.04 4.27-15.65 11.82-29.26 27.2-36.08 45.8-0.82 2.35-1.68 4.71-2.35 7.13-4.47-9.51 5.99-16.66 8.58-25.05 3.72-12.96 15.66-20.54 21.81-32.15z"/>
<path fill="#fefd03" d="m13.73 1076.8c6.82-18.6 20.43-33.98 36.08-45.8 4.75 3.06 9.71 6.8 10.31 12.86-16.2 13.23-34.44 25.74-46.37 43.99-1.83-2.82 0.21-7.63-0.02-11.05z"/>
<path fill="#cdcc01" d="m60.12 1043.9c4.19 4.36 8.3 10.03 6.66 16.43-15.76 13.72-37.71 17.89-52.68 32.68-5.85 5-1.36-5.77-2.72-9.04 0.67-2.42 1.53-4.78 2.35-7.13 0.23 3.42-1.81 8.23 0.02 11.05 11.93-18.25 30.17-30.76 46.37-43.99z"/>
<path fill="#01fe02" d="m139.09 1079.6c12.51 1.15 16.85-12.72 26.34-17.65-0.28 11.73-9.27 21.34-9.7 33.47-8.81 5.36-34.44 12.13-33.1-3.93-1.45-5.35-7.75-7.95-8.92-13.36 7.14-4.97 17.13 2.64 25.38 1.47z"/>
<path fill="#fffe02" d="m90.28 1073.2c7.77 2.34 14.76 7.3 21.1 12.42 3.35 5.52-5.5 8.74-7.5 13.26-10.63 15.47-22.32 30.35-30.91 47.13-3.62-3.45-5.63-19.51-5.13-28.12 5.43-15.85 12.28-31.31 22.44-44.69z"/>
<path fill="#cbcb05" d="m383.48 1080.2c3.84 1.56 17.02-4.24 16.19 2.35-4.98 7.09-8.85 17.99-17.8 20.14 1.43-6.73-2.77-17.52 1.61-22.49z"/>
<path fill="#cccc01" d="m111.38 1085.6c4.93 4.5 7.57 11.88 6.26 18.52-10.41 17.83-29.38 28.61-44.67 41.87 8.59-16.78 20.28-31.66 30.91-47.13 2-4.52 10.85-7.74 7.5-13.26z"/>
<path fill="#fffe02" d="m166.14 1096.1c11.76-0.56 23.68-0.33 35.14 2.68 0.43 0.37 1.29 1.12 1.72 1.49-16.37 13.42-26.28 36.87-19.49 57.01-21.56-12.25-17.32-40.48-17.37-61.18z"/>
<path fill="#cdcc01" d="m201.28 1098.7c5.84-0.28 9.89 4.93 15.52 5.35l0.18 0.77c0.04 4.77 9.05 8.6 3.11 13.14-13.89 12.73-33.28 26.76-31.17 48.34-4.28 1.77-5.57-5.9-5.41-9.1-6.79-20.14 3.12-43.59 19.49-57.01-0.43-0.37-1.29-1.12-1.72-1.49z"/>
<path fill="#80fe01" d="m869.44 1111.9c28.41-2.55 55.57 8.03 80.68 20.17-9.54 7.56-22.19 10.56-31.31 18.83-7.38-4.49-8.44-16.76-15.26-22.66-12.9-1.52-23.91-13.61-34.11-16.34z"/>
<path fill="#80fd04" d="m937.74 1116.1c15.24 2.88 30.64 7.07 45.07 12.13-2.98 5.69-12.76 6.34-17.66 11.44-9.04-7.95-18.82-15.12-27.41-23.57z"/>
<path fill="#fefe02" d="m925.62 1153.7c9.97-6.08 20.14-11.98 30.38-17.59 10.12 21.86 13.79 48.19 2.35 70.25-4.44 4.41-7.4-9.15-7.16-12.47 1.39-18.67-27.73-23.49-25.57-40.19z"/>
<path fill="#fefe02" d="m973.82 1144.7c4.78-5.44 13.99-13.55 20.02-4.61 13.66 16.47 22.8 40.94 14.1 61.82-0.53 1.34-1.18 1.39-1.96 0.16-5.33-7.92-5.35-19.24-14.75-24.37-9.47-7.01-27.4-19.41-17.41-33z"/>
<path fill="#cbcb05" d="m572.92 1137.2c0.48 2.56-6.56 11.66 1.21 14.99-7.09 3.3-14.59 5.69-21.39 9.62 5.18-9.68 8.05-21.38 20.18-24.61z"/>
<path fill="#fefe02" d="m878.19 1183.2c-6.77-17.39 13.26-29.8 25.52-37.98 16.96 19.45 22.91 49.19 15.04 74.2-12.87-12.51-23.01-30.2-40.56-36.22z"/>
<path fill="#cccc01" d="m976.39 1180.6c-3.98-10.36-12.4-27.79-2.57-35.88-9.99 13.59 7.94 25.99 17.41 33 9.4 5.13 9.42 16.45 14.75 24.37-10.66-1.81-16.45-18.73-29.59-21.49z"/>
<path fill="#cccc01" d="m923.96 1175.9c-1.9-8.12-10.91-17.85 1.66-22.24-2.16 16.7 26.96 21.52 25.57 40.19-0.24 3.32 2.72 16.88 7.16 12.47-0.51 8.1-7.24 1.71-10.4-1.28-11.9-6.78-8.78-26.46-23.99-29.14z"/>
<path fill="#cccb01" d="m871.33 1180.3c5.8-3.66 2.63 4.85 6.86 2.88 17.55 6.02 27.69 23.71 40.56 36.22 2.25 3.94-4.51 6.79-5.53 2.42-3.21-9.97-14.79-10.69-22.48-15.6-10.48-4.12-17.17-15.76-19.41-25.92z"/>
<path fill="#40ff40" d="m0 0h0.78c-0.2 0.19-0.59 0.58-0.78 0.78v-0.78z"/>
<path fill="#010102" d="m570.4 6.42c9.73-0.5 11.68 12.75 13.61 20.31-10.81 12.3-22.66 24.41-33.09 37.26 3.52 5.77 10.39 7.65 15.46 11.64 26.74 16.53 46.29 42.39 54.38 72.62 16.29 6.39 33 13.49 49.18 20.77 26.87 23.24 48.88 56.26 49.95 92.86 0.08 1.78-2.54 0.78-3.61 1.39 2.52 24.94 10.65 48.71 17.56 72.53-8.17-0.85-12.2-11.08-16.02-17.59 0.65-0.74 1.3-1.47 1.97-2.19 1.36 2.33 3.13 4.45 5.5 5.84-4.79-19.3-8.94-38.79-13.91-58.02-7.49-5.74-17.98-1.44-25.64-6.86-1.73-3.87 4.23-5.72 6.48-8.23 6.33 0.84 12.59 2.16 18.91 3.05-1.91-26.79-16.07-50.5-36.26-67.67-13.88-20.39-39.09-27.18-62.16-30.36-1.82-3.1 5.38-3.04 4.12-6.67-6.78-16.66-16.24-32.29-29.11-44.98-3.45-4.42-6.97-9.07-11.85-11.99 2.28 5.39 5.83 10.11 8.83 15.11 4.15 10.31 17.23 16.69 13.28 29.56-2.39 4.67-5.1-5.35-7.49-0.09-4.16 28.76-49.54 32.49-63.45 10.38-10.09 22.47-41.9 28.39-61.74 16.57-1.19-9.37-6.02-1.11-12.09-3.13-3.97-13.6 9.64-22.17 11.77-34.51-9.03 11.18-16.17 25.24-16.36 39.45 5.94-0.75 17.48 15.28 14.73 5.01-6.77-9.21 12.81 1.74 3.73 4.58 3.23 3.31 8.18-2.2 11.94 2.25-6.2-0.08-8.02 0.7-4.33 4.08-10.26 3.15-20.49-5.11-27.92-12.35-1.72 8.34-6.52 22.7 5.63 9.93-3.86 10.47-17.18 19.87-26.12 28.27 0.89-1.6 2.44-3.68-0.16-4.47 11.86-9.83 10.31-26.26 14.94-39.73 9.64-31.05 34.33-54.6 49.07-82.93 3.33-3.68 10.44-1.78 12.86-6.1-8.25-11.89-18.12-22.9-26.38-34.87-1.33-6.27 3.62-15.49 10.15-15.91-0.65 11.46 10.16 15.57 15.56 23.52 5.28-0.1 3.22-11.76 8.64-11.6 2 10.09 6.18 22.07 12.73 30.76 18.36 7.12 17.33-13.79 22.59-24.75 4.14-1.27 3.88 4.9 5.91 7.1 5.66-13.59 18.5-23.98 18.21-39.84m-24.97 53.77c-7.86 2.11-3.95 7.98 1.71 9.89 0.91-2.72 3.12-11-1.71-9.89m-37.42 3.98c-0.88 13.59 12.46-0.8 0 0m5.87 15.45c-7.6-2.19-13.5-3.7-18.94 4.62-0.55-5.42-4.99 4.58-7.02 6.77-9.85 8.34-13.34 23.32-17.08 35.58 2.74-2.64 6.6-11.1 12.31-4.61-0.73 1.4-1.57 2.74-2.27 4.16-5.58 10.58-22.44 10.79-22.84 24.81 11.15-7.56 21.97-17.64 31.8-27.02 1.81-1.22 4.56-2.17 5.01-4.52 7.61-2.9 15.88-9.57 21.9-14.57-6.78-4.18-15.32 11.08-21.04 6.5 9.87-8.15 23.82-14.55 19.09-30.27 1.29 4.13 4.42 19.69 10.43 14.18 8.44-2.93-2.24-9.79 3.77-15.38-7.32 0-19.94-16.87-15.12-0.25m13.65-8.54c0 15.76 14.7-2.01 0 0m5.75 21.7c7.29 0.59 14.97 3.55 21.58 4.12-4.46 10.87-17.86-7.3-22.81 4.23 8.99 2.23 20.6 3.07 30.16 6.89l0.72 0.32c10.06 2.86 18.66 9.19 27.94 13.73-6.53-7.28-18.59-13.77-23.28-20.76 13.43 2.92 2.26-14.77-2.28-16.99-1.03-2.41-3.41-3.86-5.89-4.36-8.03-15.24-24.58 0.91-26.14 12.82m-0.75 12.34c-1.93 3.16-3.08 6.7-4.48 10.11 8.34-6.73 17.47 2.05 18.94 10.73-1.1 8.81-19.05 8.28-12.17 18 15.67 18.65 52.97 3.75 53.42-20.26-18.45-6.48-35.63-18.12-55.71-18.58m-14.02 2.94c-16.02 16.25-38.88 24.33-51.14 44.14 9.57 15.64 37.23 17.45 44.78-1.95-6.04 4.09-14.79-6.34-12.22-12.91-1.49-11.44 15.57-8.92 22.35-9.63-7.29-4.1-0.81-14.03-3.77-19.65m14.9 11.77c1.21 8.1 9.13-0.36 0 0m-24.37 12.21c-0.9 10.26 11.29-2.13 0 0z"/>
<path fill="#befbb7" d="m513.88 79.62c-4.82-16.62 7.8 0.25 15.12 0.25-6.01 5.59 4.67 12.45-3.77 15.38-6.01 5.51-9.14-10.05-10.43-14.18-0.23-0.36-0.69-1.09-0.92-1.45m2.2-2.57c3.89 4.55 1.78 15.34 9.7 14.15-3.45-3.87-1.23-12.97-9.7-14.15z"/>
<path fill="#c0fbc1" d="m527.53 71.08c14.7-2.01 0 15.76 0 0z"/>
<path fill="#807ffc" d="m533.28 92.78c1.56-11.91 18.11-28.06 26.14-12.82-18.63-2.07 8.11 7.07-2.68 11.74-1.24 3.14 7.22 9.12 0.23 10.29-9.26 2.94 5.83-0.37 5.24 6.03-9.56-3.82-21.17-4.66-30.16-6.89 4.95-11.53 18.35 6.64 22.81-4.23-6.61-0.57-14.29-3.53-21.58-4.12z"/>
<path fill="#807ffd" d="m494.94 84.24c5.44-8.32 11.34-6.81 18.94-4.62 0.23 0.36 0.69 1.09 0.92 1.45 4.73 15.72-9.22 22.12-19.09 30.27l-0.85-0.11c-9.06-11.29 7.49-17.97 0.08-26.99z"/>
<path fill="#85f71e" d="m516.08 77.05c8.47 1.18 6.25 10.28 9.7 14.15-7.92 1.19-5.81-9.6-9.7-14.15z"/>
<path fill="#bcbcfe" d="m556.74 91.7c10.79-4.67-15.95-13.81 2.68-11.74 2.48 0.5 4.86 1.95 5.89 4.36-6.72 5.61 3.23 12.21-3.8 15.97-0.66 2.78 5.93 6.5 1.42 8.05l-0.72-0.32c0.59-6.4-14.5-3.09-5.24-6.03 6.99-1.17-1.47-7.15-0.23-10.29z"/>
<path fill="#bdbdfe" d="m487.92 91.01c2.03-2.19 6.47-12.19 7.02-6.77 7.41 9.02-9.14 15.7-0.08 26.99-0.03 2.72 0.04 5.45-0.01 8.18-0.45 2.35-3.2 3.3-5.01 4.52-2.66 0.63-7.67 5.73-8.96 2.21 0.7-1.42 1.54-2.76 2.27-4.16 1.92-7.27 10.22-16.26 3.22-21.65 9.95-7.92-3.86-1.53 1.55-9.32z"/>
<path fill="#7f7ff7" d="m565.31 84.32c4.54 2.22 15.71 19.91 2.28 16.99 4.69 6.99 16.75 13.48 23.28 20.76-9.28-4.54-17.88-10.87-27.94-13.73 4.51-1.55-2.08-5.27-1.42-8.05 7.03-3.76-2.92-10.36 3.8-15.97z"/>
<path fill="#87f089" d="m575.87 90.13c4.88 2.92 8.4 7.57 11.85 11.99-1.02 1.03-2.03 2.07-3.02 3.12-3-5-6.55-9.72-8.83-15.11z"/>
<path fill="#7f7ffc" d="m470.84 126.59c3.74-12.26 7.23-27.24 17.08-35.58-5.41 7.79 8.4 1.4-1.55 9.32 7 5.39-1.3 14.38-3.22 21.65-5.71-6.49-9.57 1.97-12.31 4.61z"/>
<path fill="#80fe80" d="m584.7 105.24c0.99-1.05 2-2.09 3.02-3.12 12.87 12.69 22.33 28.32 29.11 44.98 1.26 3.63-5.94 3.57-4.12 6.67 23.07 3.18 48.28 9.97 62.16 30.36 20.19 17.17 34.35 40.88 36.26 67.67-6.32-0.89-12.58-2.21-18.91-3.05-25.09-4.65-50.23-9.28-75.51-12.6-37.98 0.84-75.33 8.77-112.49 16.03-20.53 7.64-41.01 15.5-61.33 23.67-16.5 10.98-34.03 20.39-50.83 30.98-7.48-4.44-5.31-16.29-4.14-23.79 8.82-27.63 22.54-53.61 38.36-77.8 8.94-8.4 22.26-17.8 26.12-28.27-12.15 12.77-7.35-1.59-5.63-9.93 7.43 7.24 17.66 15.5 27.92 12.35-3.69-3.38-1.87-4.16 4.33-4.08-3.76-4.45-8.71 1.06-11.94-2.25 9.08-2.84-10.5-13.79-3.73-4.58 2.75 10.27-8.79-5.76-14.73-5.01 0.19-14.21 7.33-28.27 16.36-39.45-2.13 12.34-15.74 20.91-11.77 34.51 6.07 2.02 10.9-6.24 12.09 3.13 19.84 11.82 51.65 5.9 61.74-16.57 13.91 22.11 59.29 18.38 63.45-10.38 2.39-5.26 5.1 4.76 7.49 0.09 3.95-12.87-9.13-19.25-13.28-29.56m16.75 35.96c-7.61 4.98-11.13 13.56-17.35 19.88 7.83-3.36 23.32-10.62 17.35-19.88m-41.79 23.3c-13.46-0.8-11.74 23.46 1.98 18.57 14.98 2.14 8.9-21.69-1.98-18.57m-54.81 7.83c-3.13 3.24-13.25 3.19-8.41 9.07 5.18 7.75 16.42 8.65 19.81-1.28 6.12-6.77-6.8-10.3-11.4-7.79z"/>
<path fill="#807ef0" d="m495.71 111.34c5.72 4.58 14.26-10.68 21.04-6.5-6.02 5-14.29 11.67-21.9 14.57 0.05-2.73-0.02-5.46 0.01-8.18l0.85 0.11z"/>
<g fill="#fefefe">
<path d="m532.53 105.12c20.08 0.46 37.26 12.1 55.71 18.58-0.45 24.01-37.75 38.91-53.42 20.26-6.88-9.72 11.07-9.19 12.17-18-1.47-8.68-10.6-17.46-18.94-10.73 1.4-3.41 2.55-6.95 4.48-10.11z"/>
<path d="m518.51 108.06c2.96 5.62-3.52 15.55 3.77 19.65-6.78 0.71-23.84-1.81-22.35 9.63-2.57 6.57 6.18 17 12.22 12.91-7.55 19.4-35.21 17.59-44.78 1.95 12.26-19.81 35.12-27.89 51.14-44.14z"/>
<path d="m533.41 119.83c9.13-0.36 1.21 8.1 0 0z"/>
</g>
<path fill="#7f7fef" d="m480.88 126.14c1.29 3.52 6.3-1.58 8.96-2.21-9.83 9.38-20.65 19.46-31.8 27.02 0.4-14.02 17.26-14.23 22.84-24.81z"/>
<path fill="#fdfdfd" d="m509.04 132.04c11.29-2.13-0.9 10.26 0 0z"/>
<path fill="#000500" d="m601.45 141.2c5.97 9.26-9.52 16.52-17.35 19.88 6.22-6.32 9.74-14.9 17.35-19.88z"/>
<path fill="#000101" d="m559.66 164.5c10.88-3.12 16.96 20.71 1.98 18.57-13.72 4.89-15.44-19.37-1.98-18.57z"/>
<path fill="#010201" d="m504.85 172.33c4.6-2.51 17.52 1.02 11.4 7.79-3.39 9.93-14.63 9.03-19.81 1.28-4.84-5.88 5.28-5.83 8.41-9.07z"/>
<path fill="#010101" d="m394.98 242.98c7.01-16.34 20.07-28.85 31.14-42.21 2.6 0.79 1.05 2.87 0.16 4.47-15.82 24.19-29.54 50.17-38.36 77.8-1.17 7.5-3.34 19.35 4.14 23.79 16.8-10.59 34.33-20 50.83-30.98 20.32-8.17 40.8-16.03 61.33-23.67 37.16-7.26 74.51-15.19 112.49-16.03 25.28 3.32 50.42 7.95 75.51 12.6-2.25 2.51-8.21 4.36-6.48 8.23-1.61-0.18-1.76 1.35-1.01 2.42 11.91 18.73 22.48 38.38 35.06 56.62-0.67 0.72-1.32 1.45-1.97 2.19-6.8-6.9-9.46-18.85-16.52-24.02-6.79 15.2-22.36 23.22-31.27 36.83 10.74 9.03 24.26 15.42 35.74 23.89 7.79-5.08 2.02-22.6 14.09-22.52-6.46 29.91 1.6 61.98-13.53 89.91-35.47 44.19-88.75 72.81-144.76 80.21-4.95 23.4-12.81 46.97-10.23 71.23 18.83 0.41 33.41-15.34 49.95-23.23 15.45-4.18-0.31-27.43 10.65-34.4 2.92 5.76 5.52 12.82 10.07 17.98 8.67-3.89 8.84-18.39 16.79-20.75-0.59 7.02-7.51 13.19-2.05 20.98 14.39 3.75 31.06-6.65 44.14-5.38-9.22 10.41-28.21 11.53-38.82 21.29-0.79 9.79 11.13 10.02 15.89 13.92-8.9 5.99-23.69-1.75-34.98-2.17-24.56 7.31-46.33 24.2-66.84 40.21 6.01 66.06 49.47 120.98 93.95 166.72 11.93-8.64 27.9-14.83 34.95-28.87 14.83-28.99 45.88-43.17 69.76-63.24 33.86-31.79 81.11-41 123.74-55.32 50.25-13.56 106.92-21.78 143.86-62.04 19-12.9 23.5-38.73 35.8-55.45 10.5 26.66 2.9 58.66-2.9 87.26-15.6 33.64-44.1 58-75.31 76.75-39.12 18.28-79 35.26-117.71 54.27-28.96 38.03-52.99 80.26-69.95 125.09-5.41 27.98-9.28 56.29-14.58 84.31-18.93 46.15-39.15 91.83-63.76 135.33-1.19 4.8-10.69 13.6-2.09 16.5 26.78-0.1 51.24 12.5 76.9 18.7 39.36 15 81.75-7.9 121.43 4.4 8.31 1.2 27.68-0.9 39.8 1.4 33.01 9.5 70.87 34.4 68.07 73 0.7 10.4-0.6 24.1-10.1 30-13.99-8.1-24.19-22.3-38.14-30.9-3.94 11.6-4.15 26.1-13.02 34.9-15.79-5.2-18.65-22.8-28.2-34.2-3.47 14.8 5 36-9.14 47.8-3.95 7.1-7.97-4.4-11.26-6.8-33.27-24.4-76.73-4.9-114.13-14.9-32.06-2.7-58.12-27.5-90.8-25.8-38.11 7.2-78.52 4.6-113.5-13-16.77-9.2-35.86 1.5-48.63 10.5 9.3-44 59.01-62.8 77.96-100.5-28.44 11.4-58.57 17.9-88.08 26-40.51 0-79.71-12.6-116.04-30-9.07 18.2-23.81 33.9-42.74 41.7-3.46-11.6 9.33-23.8 3.01-35.8-35.39-26.7-98.27-19.1-120.32 21-16.14 17.7-41.81 24.2-53.78 46.1-11.26 7.5-2.34 18.8-2.39 28.7-31.12-3.5-36.49-41.9-43.87-65.6-11.48 3.5-22.25 9.8-35.09 6.8-14.89 14.6-40.26 20.1-47.17 41.8-4.65 1.2-3.5-6.6-5.64-8.8-12.86-24.1 1.07-50.5 11.14-72.8 4.04-8.4-10.95-2.8-14.9-4.2-14.33 4.8-27.97 11.7-41.22 19-7.45 3.7-6.26 19.4-16.83 16.8 0.18-26.2 8.84-51.2 20.06-74.5 8.89-8.5 17.94-16.7 26.5-25.5 39.98-27.42 90.79-25.03 136.96-24.49 24.55 1.05 54.87 10.57 75.07-7.54-10.14-31.8-2.83-66.32-4.35-99.16 6.21-22.96 12.57-45.95 19.26-68.77 18.41-15.41 36.71-31.02 55.29-46.24 16.07-1.69 32.79-0.9 48.59 2.21 33.92-47.1 71.26-91.83 106.75-137.8 0.55-7.22 3.42-16.76-3.5-22.01-12.84-12.74-22.98-33.09-44.18-29.65-8.94 5.77-18.86 9.83-29.58 10.4 0.7-11.15 15.72-15.59 20.6-23.63-9.1-2.86-21.17-2.77-28.66-7.19 6.88-3.98 19.58-2.14 28.77-5.1-1.53-10.04-16.29-12.5-15.6-23.61 10.43 5.52 21.46 15 34.71 15.69 1.11-6.45 2.53-15.18 8.28-18.91 7.77 14.11 1.41 37.28 17.51 48.31 7.83 9.32 18.67 14.74 31.01 14.61 3.17-19.85 16.26-36.33 17.54-56.6 2.71-8.8-0.75-18.99 5.84-26.37-18.46-5.32-37.77-7.7-56.34-12.65-17.08-10.19-34.17-20.48-51.07-30.97-21.36-30.13-37.45-63.56-55.47-95.38 10.48 0.07 17.89 17.27 27.65 22.77 11.07-8.47 18.83-20.36 26.89-31.55-2.52-4.05-5.59-7.74-8.79-11.25-8.42 8.45-14.73 20.31-22.94 28.07-14.04-13.73 9.79-41.45-9.55-52.81 0.32-25.47-1.5-53.63 12.51-76.2m177.81 1.44c-7.26 4.84-19.31 1.34-24.82 5.48 8.83 19.84 11.22 42.33 22.04 61.1 4.69-19.98 6.88-41.15 16.67-59.45 6.03-10.85-7.47-7.65-13.89-7.13m21.73-0.4c-2.2 13.67-13.6 25.1-10.37 39.58 8.69 0.02 15.78 5.26 23.75 7.85 0.2 11.91 2.08 24.58-4.66 34.8 1.06 0.06 15.58 2.5 9.95-2.68 2.32-27.71 15.66-52.82 21.71-79.6-13.47 0.03-26.93-0.05-40.38 0.05m46.64 0.03c-2.14 22.03-15.27 40.42-19.12 61.94 17.68-16.97 33.59-35.8 50.93-53.16-8.73-5.58-21.7-5.44-31.81-8.78m-118.03 11.89c-0.34 0.27-1.03 0.82-1.37 1.1-5.24 0.36-9.55 4.02-10.5 9.22-8.2 18.09-12.62 38.04-15.79 57.17 21.96 13.23 7.98-18.19 19-28.03 11.48-5.21 26.59-12.76 36.36-0.27-2.87 8.89-5.24 17.99-3.55 27.44 10.57 4.27 21.99-7.16 16.92-17.54-7.46-17.47-19.39-32.82-22.49-51.91-5.99 1.22-13.22 2.55-18.58 2.82m154.14 1.28c-22.03 20.4-39.79 45.47-60.07 66.96 12.79-3.54 25.87-6.4 37.11 2.67 16.89-3.18 23.38-22.2 37.09-30.76 4.22-9.8-3.71-17.52-8.57-25.08-1.87-3.97-0.72-12.41-5.56-13.79m-173.8 3.17c-13.72 10.9-33.11 7.96-46.34 19.69 9.9 17.29 16.03 38.32 27.96 53.69 4.2-23.65 18.95-49.79 18.38-73.38m-57.99 24.06c-17.65 7.26-34.19 17.44-49.58 28.42-4.21 16.16-3.56 34.11-4.32 50.18 20.67-24.76 38.21-51.79 55.32-79.13-0.36 0.13-1.06 0.4-1.42 0.53m6.6-0.4c-12.48 17.57-26.12 36.07-31.09 57.18 18.98 18.04 42.06-4.1 53.72-18.94-10.09-11.09-13.02-27.14-22.63-38.24m161.3 46.55c-19.54 2.76-45.45-7.22-57.16 13.38 5.82 15.57 12.56 32.71 2.86 48.11-9.25 17.41 13.95 36.72 29.82 26.52 0.53-14.42-0.35-28.88 0.28-43.3 10.12 0.17 8.32 18.9 8.93 26.94 5.37 4.82 11.1 11.27 19.22 8.66-0.03 0.58-0.08 1.74-0.11 2.33-14.09 2.71-4.95 13.6-0.86 20.56 6.96 3.29 13.21-4.54 19.39-7.04 13.22-19.08 17.35-42.49 24.1-64.29 6.79-18.33-9.72-28.44-22.77-36.57-8.14-4.79-15.94 3.15-23.7 4.7m-133.89 0.58c-6.14 5.38-16.96 1.93-19.5 11.9-17.72 21.54-18.43 51.89-11.78 77.47 11.26 10.2 15.64-10.49 22.4-16.84-0.86-5.71-6.35-12.07-3.17-18.62 2.4 3.2 3.96 7.57 8.01 9.04 0.11-5.76 0.16-18.02 9.5-14.8 0.52 17.01 10.24 42.61 32.1 39.8 18.14 4.16 12.66-21.01 20.93-30.18 4.48 10.91 7.31 23.47 17.03 31.04-4.99-14.48-4.26-30.85 0.87-44.93-5.69-11.21-5.4-24.67 0.15-35.87-16.75-17.4-40.02 4.55-59.47-7.6-10.26-1.33-2.97 15.85-12.05 14.93-7.47-2.14 0.06-13.56-5.02-15.34m180.57 4.96c11.26 21.44 10.62 48.52 22.94 68.69 6.42-11.04 10.1-25.66 18-36.67-10.72-13.84-28.83-20.37-40.94-32.02m-215.65 17.15c-16.6 9.28-33.51 24.8-37.18 44.02 14.34 14.54 25.95 32.91 44.83 41.52 2.62-4.78-3.8-9.74-5.69-14.26-11.92-17.29-17.78-42.46-4.37-60.52 0.66-2.67 6.74-9.78 2.41-10.76m265.89 3.94c-6.69 21.08-18.19 40.1-26.57 60.47 8-6.31 20.18-12.07 20.09-23.82 0.6-11.98 6.76-26.05 6.48-36.65m-46.1 6.72c-10.03 25.09-12.86 52.67-21.97 77.9 12.2-3.6 25.34-7.86 36.55-14.87-5.59-20.72-10.83-42.66-14.58-63.03m-275.36 22.25c14.49 22.52 23.67 55.5 54.36 59.74 6.45 0.69-1.88-4.15-3.43-5.74-20.91-14.21-31.03-38.77-50.93-54m90.36 11.02c-6.88 18.41-19.37 34.28-26.12 52.66 14.81 7.46 33.67 9.53 50.5 9.65-12.75-18.55-13.15-44.38-24.38-62.31m114.82 3.74c-2.26 19.07-4.36 38.53-4.63 57.77 9.31 1.42 20.08-3.52 27.48-7.79-6.56-16.92-14.42-34.28-22.85-49.98m-56.81 3.32c-4.68 19.56-9.45 39.2-14.12 58.71 12.37-0.48 26.82 1.17 37.87-0.83-7.96-18.74-14.99-40.76-23.75-57.88m135.89 31.86c-31.2 17.02-67.06 22.29-100.43 33.71-30.98-1.54-61.19 0.03-87.95-3.26-20.23-7.77-40.19-16.37-60.65-23.54-5.42-5.3-11.78-2.05-2.17 3.03 13.05 19.2 34.34 26.88 54.91 35.09 36.88 10.65 75 11.6 113.07 6.83 33.49-10.62 68.56-24.09 92.2-50.98 8-6.78 12.68-16.76 18.8-25.12-9.44 7.43-19.48 15.29-27.78 24.24m-172.99-16.08c3.11 8.03-1.02 23.05 10.32 24.28 8.84 7.41 23.4-10 12.47-17.29-7.85-1.53-15.03-5.5-22.79-6.99m55.89 7.3c-2.85 10.54 8.86 13.24 13.87 19.84 3.64-7.3 17.19 0.38 14.17-10.25 2.99-21.36-18.27 0.36-28.04-9.59m77.6 10.07c-7.64 2.02-15.51 0.62-11.73 12.16 8.54 3.93 12.37-8.96 11.73-12.16m-57.12 9.94c-4.06 2.75-13.37 0.18-11.51 7.56-2.47 10.25 9.76 6.47 14.98 4.79-0.6-3.98 3.22-14.76-3.47-12.35m-67.35 0.76c-6.88 12.43 9.98 21.2 9.78 6.1 8.65-4.94-6.19-6.5-9.78-6.1m-0.34 145.94c-25.36-7.55-55.51-26.7-46.63-57.82-2.97 4.18-6.88 11.86-9.92 17.4-7.5 2.23-3.56-5.39-0.22-6.84-7.36-6.06-16.99-7.94-25.14-12.67 1.44 9.54 13.01 14.61 15.4 21.24-5.57-0.89-34.29-1.75-18.73 2.61 2.33 3.25 14.37-1.09 18.53 1.71-2.32 8.9-12.14 11.43-17.06 18.32 10.08-2.12 19.05-15.43 29.72-8.76 22.16 8.21 41.16 32.45 43.12 55.49-24.57 35.55-50.46 70.44-80.3 101.81-16.83 21.31-31.91 43.95-48.8 65.24-11.3 22.55-19.78 46.41-29.81 69.53-0.25-1.4-0.63-2.75-1.04-4.09 6.19-17.57 10.79-37.13 19.31-54.24 6.76-10.23 9.98-21.52 14.66-33.01-21.1-10.39-45.86 3.2-61.81 18.1-12.28 18.16-25.08 35.99-36.94 54.43-2.08 13.87-3.74 27.79-5.94 41.64-5.84 27.95 4.48 55.62 5.92 83.51 15.22-4.65 36 0.48 46.63 12.56-11.93 1.58-28.94-12.03-39.71-6.35 9.93 5.37 31.28 5.27 35.83 17.87-13.71-2.45-27.27-6.83-40.74-10.72-10.16 5.91-23 7.02-34.31 10.96-55 0-111.42-8.58-164.71 9.01-9.35 6.2-18.7 12.6-27.85 19.2 3.57 6.8 12.66 8.4 18.7 12.8-0.3 6.8 8.82 9.4 9.01 16.2 0.28 5.3-1.98 13.4 5.14 14.9 5.12-4.6 10.05-9.6 14.1-15.1 3.07 0.3 6.58 0 9.13 2-3.07 4.6-7.16 8.6-9.03 13.8 6.84 3.7 14.34 6.5 18.56 13.5 2.79 6.9 11.85 12.1 9.48 21.4 10.47-0.5 24.72 3.7 32.51-5 1.47-10.9 6.24-20.7 10.37-30.6 8.11-19.2 26.56-30.6 41.85-43.5 1.97-1.3 6.17-1.1 4.23 1.6-19.1 18.8-39.7 39-46.15 65.9 15.2-2.6 29.25 1.6 42.76 7.8 3.71 4.9 10.73 6.1 12.8 12.8 8.17 1.3 18.53-1.7 22.26-9.7 5.99-10.8 18.46-19 16.11-32.8-2.82-6.8 4.69-8 5-2.3 18.53-6.7 39.09-6.2 58.33-8.5 21.91-6.1 43.16 16.6 65.52 14.2 3.57 3.8 17.7 5.6 17.04-1.2-11.12-9.4-22.62-18.4-33.26-28.3 1.89-2.4 3.5-7.3 7.28-5.1 4.87 3.5 8.91 8.8 14.87 10.4 7.73 5.2 2.21-4.3-0.15-8.1 0.24-0.3 0.73-0.9 0.97-1.1 14.21 11.7 25.46 27 40.78 37.4 15.52 5.8 30.92 11.9 46.45 17.6 33.44 2.9 71.15 3 98.1-20.1 0.27 0.3 0.82 0.7 1.1 1-3.35 3.9-11.91 5.5-10.7 11.8 24.15-1.2 42.46-21.1 64-30.4 16.91-17.8 41.03-33.7 46.18-58.95 10.7-26.09 18.55-53.61 15.42-82.28-7.04-29.27-13.95-59.34-26.02-87.24-12.45-18.46-20.04-39.76-33.41-57.61-29.08-37.57-58.77-75.09-80.91-117.29-1.71-16.27-5.92-32.92-4.11-49.16 18.25-16.32 39.32-29.07 59.4-42.98 7.63-6.83 17.6 0.23 26.39-1.05 1.58-2.5-10-5.12-4.88-7.58 10.44-3.12 19.13-10.07 29.38-13.67-7.47-2.1-18.01 2.74-26.7 3.18-4.37-4.52-4.8-10.11-1.29-15.03-12.62 2.94-4.25 38.85-17.74 17.8 0.03-4.76-0.46-13.19-5.22-14.54 0.02 7.69-0.11 15.39 0.45 23.07-21.36 6.29-34.87 26.14-56.46 31.83-9.11 2.09-10.63-8.29-13.5-14.31 7.26-14.96 8.58-38.03-0.46-52.96-21.48 20.53-17.44 54.93-33.14 79.34m536.61-53.21c-11.7 15.34-25.2 29.11-39.3 42.21-21.71 10.93-43.94 21.38-67.63 27.46-44.81 7.87-86.67 26.18-130.34 38.58-18.84 9.57-39.16 17.49-54.36 32.66-24 22.08-52.89 39.82-70.94 67.63 6.22 0.87 12.79 1.13 19.17 1.44 31.22-0.51 52.04 26.34 75.85 43.01 11.28-12.56 11.99-30.8 24.46-42.54 12.17-15.25 23.3-27.21 36.14-41.88 38.63-20.28 78.79-37.62 120.04-51.91 31.43-17.59 70.91-30.15 86.21-65.78 9.8-20.05 12.9-41.9 15.2-63.91-5.8 4.05-10.2 11.44-14.5 13.03m-22.9 87.52c-9.2 5.95-19 11.12-28.46 16.71 6.76 11.25 26.46-15.66 28.46-16.71m-30.23 17.96c-9.45 6.34-20.12 10.1-30.44 14.73 4.56 10.27 14.09-1.86 20.74-3.48 4.08-2.55 17.24-6.74 9.7-11.25m-34.87 16.04c-10.69 4.45-21.66 8.21-32.31 12.76 0.78 2.54 0.82 6.35 3.1 7.78 13.2-1.51 24.91-8.08 36.52-14.09-0.64-3.11-3.95-7.34-7.31-6.45m-37.34 14.93c-10.69 4.63-21.79 8.5-32.06 14 0.41 2.16 0.14 5.16 1.92 6.62 10.73-4.17 21.04-9.61 32.09-12.88 5.41 0.27 2.45-9.95-1.95-7.74m-35.79 15.02c-11.28 5.65-22.74 11.98-33.27 18.62 3.21 1.99 0.04 10 4.44 8.69 9.29-9.11 21.81-13.69 32.45-20.87-0.72-2.13-0.63-6.99-3.62-6.44m-35.96 20.01c-11.24 3.59-17.08 14.2-25.02 21.99-0.03 4.12 6.06 5.71 7.65 9.6 5.18-8.8 13.19-14.99 20.79-21.54 0.69-3.39 1.23-10.81-3.42-10.05m-27.14 24.82c-9.8 9.63-20.85 22.18-18.78 36.9 7.71 1.12 0 12.56 5.34 13.82 4.68-14.28 12.43-27.53 20.16-40.3 2.02-5.48-2.92-8.22-6.72-10.42m-134.4 21.26c-11.68 4.08-26.07 9.19-30.64 21.31 27.23 38.13 43.42 84.46 45.92 130.92 0.38 42.08-7.49 86.85-35.72 119.65-9.07 19.5-35.73 25.8-39.3 48.3 3 0.9 3.95-3.8 6.98-3.7-17.09 20.7-45.11 37.3-53.81 65.2 15.01 35.3 62.88 34.9 93.75 34 25.69-4.3 52.34-3.7 77.07 4.8 4.57 3.8 9.94 6.4 15.99 7 20.09 11.2 44.65 18.6 67.92 17 8.51 2.8 23.12 2.5 31.97-3.5 0.03-6.5 0.37-13 1.22-19.5 1.78-0.1 3.26-6.4-0.3-4.2 6.51-15.9 22.65-25.8 29.98-40.4-14.3-6.2-28.86-11.9-43.06-18.3-33.35-4.2-66.97 0.7-99.86 7-4.94 3.6-8.65-3.9-3.58-4.8 12.49-3 26.23-2.8 38.02-5.5 2.46-4.4-4.59-6-7.47-6.3-9.37-6.7-21.93-5.2-32.25-10-29.09-11.2-65.71-16-91.53 4.7 7.17-7.7 15.32-14.9 25.23-18.8 2.6-0.1 2.82-6.5-2.13-1.2-9.96 2.9-20.35 4.7-29.64 9.5-2.62 1.2-1.92-4.8 0.39-4.5 13.11-9.7 29.53-11.4 45.42-10.2 38.58-60.6 71.82-126.27 84.19-197.38-4.19-24.43-6.5-49.13-8.92-73.78-21.79-24.64-50.22-51.87-85.84-47.32m112.35 12.55c-4.93 10.8-11.77 20.66-17.03 31.23 1.76 8.68 4.27 17.54 8.07 25.65 2.58 3.36 3-3.17 3.74-4.9 5.86-16.81 18.59-36.9 5.22-51.98m-756.36 254.73c-13.74 19.5-34.74 40.2-31.55 65.6-0.16 1.1-1.25 4.5 1.05 3 15.91-14.4 37.2-20.3 54.01-33.3 3.04-6.3-2.05-12.7-6.18-17-0.44-6.3-5.59-9.6-10.21-12.9 5.55-3.3-4.42-6.9-7.12-5.4m47.48 47.4c-10.5 14.4-18.23 30.8-23.11 47.9 2.81 7.3 1.05 23 5.84 25 15.43-13.1 34.06-24.3 44.83-41.8 1.01-6.4-1.36-14.5-6.52-18.5-6.1-5.4-13.32-10-21.04-12.6m291.88 6.9c-0.05 7.8-1.16 17.4 0.7 24 7.01-6 14.07-15.1 17.98-24-6.22-0.2-12.46-0.1-18.68 0m-216.03 16c0.34 20.8-4.41 49.1 17.4 61.2-0.27 3.5 1.09 10.5 5.59 9.5-3.16-22.2 18.62-36.8 32.81-50.2-0.41-5.3-4.86-12.9-10.63-13.1-11.15-10.1-31.1-6.2-45.17-7.4m703.07 15.9c0.86 3.9 8.32 3.2 11.87 5.1 6.41 11.6 24.16 6.4 27.96 20 3.65 4.3 4.22 14.6 10.61 14.8 6.81-10.7 22.65-11.8 30.35-19.6-17.19-8.6-35.4-15.4-54.28-19.2-5.31-3-18.79 0-26.51-1.1m-750.16 3.1c3.79 3.1 13.43-0.1 19 1-3.79-3.1-13.44 0-19-1m820.24 2c5.3 9.2 17.9 15.3 25.82 22.9 3.86-5.3 18.14-4.7 17.33-12.3-14.38-3.5-28.45-8.7-43.15-10.6m-14.49 37.9c-13.13 4.2-1.41 13.9-0.06 21.4 15.31 3.1 11.62 24 25.11 29.9 2.11 0.4 6.31 8.4 7.42 4 12.79-23 9.39-51-1.21-74.2-10.26 6.6-21.66 11.4-31.26 18.9m46.22 2.7c-0.01 10.1 0.19 26.5 13.94 27 1.38 3.1 4.47 4.8 7.22 6.6 4.09 3 8.07 16.6 12.77 10.7 0.4 1.2 1.3 2.4 2.8 2 9.7-20.7 0.1-45-12.32-62.2-8.93-14.4-28.65 3.9-24.41 15.9m-398.03-20.4c-12.61 3.4-15.3 15.9-21.12 25.7 6.55-5.3 15-7 22.34-10.8-8.15-3.3-0.51-12.3-1.22-14.9m305.29 45.7c-4.65 3.4 0-7.2-6.9-2.7 1.94 17.7 20.1 28.4 35.26 34.2 5.59 1.3 5.94 10.2 12.32 8.5 7.57-25.1 3.24-57.2-15.19-77.7-12.13 8.6-31.51 19.8-25.49 37.7z"/>
<path fill="#fefefe" d="m572.79 244.42c6.42-0.52 19.92-3.72 13.89 7.13-9.79 18.3-11.98 39.47-16.67 59.45-10.82-18.77-13.21-41.26-22.04-61.1 5.51-4.14 17.56-0.64 24.82-5.48z"/>
<path fill="#b9013a" d="m594.52 244.02c13.45-0.1 26.91-0.02 40.38-0.05-6.05 26.78-19.39 51.89-21.71 79.6 5.63 5.18-8.89 2.74-9.95 2.68 6.74-10.22 4.86-22.89 4.66-34.8-7.97-2.59-15.06-7.83-23.75-7.85-3.23-14.48 8.17-25.91 10.37-39.58z"/>
<path fill="#fefefe" d="m641.16 244.05c10.11 3.34 23.08 3.2 31.81 8.78-17.34 17.36-33.25 36.19-50.93 53.16 3.85-21.52 16.98-39.91 19.12-61.94z"/>
<path fill="#b8013a" d="m523.13 255.94c5.36-0.27 12.59-1.6 18.58-2.82 3.1 19.09 15.03 34.44 22.49 51.91 5.07 10.38-6.35 21.81-16.92 17.54-1.69-9.45 0.68-18.55 3.55-27.44-9.77-12.49-24.88-4.94-36.36 0.27-11.02 9.84 2.96 41.26-19 28.03 3.17-19.13 7.59-39.08 15.79-57.17 0.95-5.2 5.26-8.86 10.5-9.22 8.13 2.33 13.24-1.98 1.37-1.1z"/>
<path fill="#b9013a" d="m521.76 257.04c0.34-0.28 1.03-0.83 1.37-1.1 11.87-0.88 6.76 3.43-1.37 1.1z"/>
<path fill="#b9013a" d="m677.27 257.22c4.84 1.38 3.69 9.82 5.56 13.79 4.86 7.56 12.79 15.28 8.57 25.08-13.71 8.56-20.2 27.58-37.09 30.76-11.24-9.07-24.32-6.21-37.11-2.67 20.28-21.49 38.04-46.56 60.07-66.96z"/>
<g fill="#fefefe">
<path d="m684.73 259.4c-0.75-1.07-0.6-2.6 1.01-2.42 7.66 5.42 18.15 1.12 25.64 6.86 4.97 19.23 9.12 38.72 13.91 58.02-2.37-1.39-4.14-3.51-5.5-5.84-12.58-18.24-23.15-37.89-35.06-56.62z"/>
<path d="m503.47 260.39c0.57 23.59-14.18 49.73-18.38 73.38-11.93-15.37-18.06-36.4-27.96-53.69 13.23-11.73 32.62-8.79 46.34-19.69z"/>
<path d="m445.48 284.45c0.36-0.13 1.06-0.4 1.42-0.53-17.11 27.34-34.65 54.37-55.32 79.13 0.76-16.07 0.11-34.02 4.32-50.18 15.39-10.98 31.93-21.16 49.58-28.42z"/>
</g>
<path fill="#b9003a" d="m452.08 284.05c9.61 11.1 12.54 27.15 22.63 38.24-11.66 14.84-34.74 36.98-53.72 18.94 4.97-21.11 18.61-39.61 31.09-57.18z"/>
<path fill="#ff7fc0" d="m613.38 330.6c7.76-1.55 15.56-9.49 23.7-4.7 13.05 8.13 29.56 18.24 22.77 36.57-6.75 21.8-10.88 45.21-24.1 64.29-6.18 2.5-12.43 10.33-19.39 7.04-4.09-6.96-13.23-17.85 0.86-20.56 11.09-7.24 30.34-6.58 27.65-25.3-6.44 9.52-16.3 17.42-27.54 22.97-8.12 2.61-13.85-3.84-19.22-8.66-0.61-8.04 1.19-26.77-8.93-26.94-0.63 14.42 0.25 28.88-0.28 43.3-15.87 10.2-39.07-9.11-29.82-26.52 9.7-15.4 2.96-32.54-2.86-48.11 11.71-20.6 37.62-10.62 57.16-13.38z"/>
<path fill="#ff7fc0" d="m479.49 331.18c5.08 1.78-2.45 13.2 5.02 15.34 9.08 0.92 1.79-16.26 12.05-14.93 19.45 12.15 42.72-9.8 59.47 7.6-5.55 11.2-5.84 24.66-0.15 35.87-5.13 14.08-5.86 30.45-0.87 44.93-9.72-7.57-12.55-20.13-17.03-31.04-8.27 9.17-2.79 34.34-20.93 30.18-21.86 2.81-31.58-22.79-32.1-39.8-9.34-3.22-9.39 9.04-9.5 14.8-4.05-1.47-5.61-5.84-8.01-9.04-3.18 6.55 2.31 12.91 3.17 18.62-6.76 6.35-11.14 27.04-22.4 16.84-6.65-25.58-5.94-55.93 11.78-77.47 2.54-9.97 13.36-6.52 19.5-11.9z"/>
<path fill="#b9013a" d="m660.06 336.14c12.11 11.65 30.22 18.18 40.94 32.02-7.9 11.01-11.58 25.63-18 36.67-12.32-20.17-11.68-47.25-22.94-68.69z"/>
<path fill="#b9013a" d="m444.41 353.29c4.33 0.98-1.75 8.09-2.41 10.76-13.41 18.06-7.55 43.23 4.37 60.52 1.89 4.52 8.31 9.48 5.69 14.26-18.88-8.61-30.49-26.98-44.83-41.52 3.67-19.22 20.58-34.74 37.18-44.02z"/>
<path fill="#fdfdfd" d="m710.3 357.23c0.28 10.6-5.88 24.67-6.48 36.65 0.09 11.75-12.09 17.51-20.09 23.82 8.38-20.37 19.88-39.39 26.57-60.47z"/>
<path fill="#fefefe" d="m664.2 363.95c3.75 20.37 8.99 42.31 14.58 63.03-11.21 7.01-24.35 11.27-36.55 14.87 9.11-25.23 11.94-52.81 21.97-77.9z"/>
<path fill="#fdfdfd" d="m388.84 386.2c19.9 15.23 30.02 39.79 50.93 54 1.55 1.59 9.88 6.43 3.43 5.74-30.69-4.24-39.87-37.22-54.36-59.74z"/>
<path fill="#0c0005" d="m617.33 410.91c11.24-5.55 21.1-13.45 27.54-22.97 2.69 18.72-16.56 18.06-27.65 25.3 0.03-0.59 0.08-1.75 0.11-2.33z"/>
<g fill="#fefefe">
<path d="m479.2 397.22c11.23 17.93 11.63 43.76 24.38 62.31-16.83-0.12-35.69-2.19-50.5-9.65 6.75-18.38 19.24-34.25 26.12-52.66z"/>
<path d="m594.02 400.96c8.43 15.7 16.29 33.06 22.85 49.98-7.4 4.27-18.17 9.21-27.48 7.79 0.27-19.24 2.37-38.7 4.63-57.77z"/>
<path d="m537.21 404.28c8.76 17.12 15.79 39.14 23.75 57.88-11.05 2-25.5 0.35-37.87 0.83 4.67-19.51 9.44-39.15 14.12-58.71z"/>
</g>
<path fill="#08f908" d="m673.1 436.14c8.3-8.95 18.34-16.81 27.78-24.24-6.12 8.36-10.8 18.34-18.8 25.12 2.02-5.92-6.58-3.59-8.98-0.88z"/>
<path fill="#fd7fbf" d="m500.11 420.06c7.76 1.49 14.94 5.46 22.79 6.99 10.93 7.29-3.63 24.7-12.47 17.29-11.34-1.23-7.21-16.25-10.32-24.28z"/>
<path fill="#fd7fbf" d="m556 427.36c9.77 9.95 31.03-11.77 28.04 9.59 3.02 10.63-10.53 2.95-14.17 10.25-5.01-6.6-16.72-9.3-13.87-19.84z"/>
<path fill="#01fe02" d="m673.1 436.14c2.4-2.71 11-5.04 8.98 0.88-23.64 26.89-58.71 40.36-92.2 50.98-38.07 4.77-76.19 3.82-113.07-6.83-20.57-8.21-41.86-15.89-54.91-35.09 0.71-1.02 1.44-2.02 2.17-3.03 20.46 7.17 40.42 15.77 60.65 23.54 26.76 3.29 56.97 1.72 87.95 3.26 33.37-11.42 69.23-16.69 100.43-33.71z"/>
<path fill="#b30339" d="m633.6 437.43c0.64 3.2-3.19 16.09-11.73 12.16-3.78-11.54 4.09-10.14 11.73-12.16z"/>
<path fill="#18ad19" d="m421.9 446.08c-9.61-5.08-3.25-8.33 2.17-3.03-0.73 1.01-1.46 2.01-2.17 3.03z"/>
<path fill="#b5033a" d="m576.48 447.37c6.69-2.41 2.87 8.37 3.47 12.35-5.22 1.68-17.45 5.46-14.98-4.79-1.86-7.38 7.45-4.81 11.51-7.56z"/>
<path fill="#b6023a" d="m509.13 448.13c3.59-0.4 18.43 1.16 9.78 6.1 0.2 15.1-16.66 6.33-9.78-6.1z"/>
<path fill="#40ff40" d="m508.79 594.07c15.7-24.41 11.66-58.81 33.14-79.34 9.04 14.93 7.72 38 0.46 52.96 2.87 6.02 4.39 16.4 13.5 14.31 21.59-5.69 35.1-25.54 56.46-31.83 3.59-2.29-1.4-10.88 4.77-8.53 13.49 21.05 5.12-14.86 17.74-17.8-3.51 4.92-3.08 10.51 1.29 15.03 8.69-0.44 19.23-5.28 26.7-3.18-10.25 3.6-18.94 10.55-29.38 13.67-5.12 2.46 6.46 5.08 4.88 7.58-8.79 1.28-18.76-5.78-26.39 1.05-20.08 13.91-41.15 26.66-59.4 42.98-1.81 16.24 2.4 32.89 4.11 49.16 22.14 42.2 51.83 79.72 80.91 117.29 13.37 17.85 20.96 39.15 33.41 57.61 12.07 27.9 18.98 57.97 26.02 87.24 3.13 28.67-4.72 56.19-15.42 82.28-8.61 4.11-12.16 13.45-16.99 21.05-10.31 8.2-22.96 14.7-36.72 12.4-11.28 15.5-24.25 29.7-39.84 41.1 24.47-23.3 45.92-50.6 57.5-82.64 2.69-12.88 5.46-25.73 8.34-38.57 5.44-32.24-5.2-63.88-13.06-94.69-22.02-44.4-42.81-89.69-69.48-131.53-15.31-18.85-18.61-43.76-30.59-64.36-6.85-5.52-12.27-12.31-17.89-18.98-28.97 4.29-40.88 35.64-58 55.53-27.7 38.43-57.73 76.64-74.67 121.33-4.69 8.37-10.51 16.28-13.75 25.35-4.69 29.76-12.63 58.86-18.12 88.49 3.18 21.26 5.62 42.75 9.76 63.83 8.51 14.94 17.49 29.84 26.63 44.44 2.36 3.8 7.88 13.3 0.15 8.1-0.94-11.4-12.23-21-16.99-31.7-13.32 2.3-15.62-13.2-25.02-18.85-11.68-24.38-21.13-50.31-22.47-77.53 2.77-18.67 6.66-37.2 8.57-55.99 10.03-23.12 18.51-46.98 29.81-69.53 16.89-21.29 31.97-43.93 48.8-65.24 29.84-31.37 55.73-66.26 80.3-101.81-1.96-23.04-20.96-47.28-43.12-55.49-10.67-6.67-19.64 6.64-29.72 8.76 4.92-6.89 14.74-9.42 17.06-18.32-4.16-2.8-16.2 1.54-18.53-1.71 5.2-2.11 17.01 4.27 18.73-2.61-2.39-6.63-13.96-11.7-15.4-21.24 8.15 4.73 17.78 6.61 25.14 12.67-3.34 1.45-7.28 9.07 0.22 6.84 3.04-5.54 6.95-13.22 9.92-17.4-8.88 31.12 21.27 50.27 46.63 57.82z"/>
<path fill="#4df14b" d="m611.9 527.1c4.76 1.35 5.25 9.78 5.22 14.54-6.17-2.35-1.18 6.24-4.77 8.53-0.56-7.68-0.43-15.38-0.45-23.07z"/>
<path fill="#40ff40" d="m1045.4 540.86c4.3-1.59 8.7-8.98 14.5-13.03-2.3 22.01-5.4 43.86-15.2 63.91-15.3 35.63-54.78 48.19-86.21 65.78-41.25 14.29-81.41 31.63-120.04 51.91-12.84 14.67-23.97 26.63-36.14 41.88-12.47 11.74-13.18 29.98-24.46 42.54-23.81-16.67-44.63-43.52-75.85-43.01 28.67-4.03 37.65-38.74 61.65-51.19 20.5-11.35 33.83-33.14 57.11-39.88 58.7-24.23 122.31-35.27 179.23-63.78 23.11-9.26 37.51-32.86 45.41-55.13z"/>
<path fill="#80fe80" d="m1045.4 540.86c-7.9 22.27-22.3 45.87-45.41 55.13-56.92 28.51-120.53 39.55-179.23 63.78-23.28 6.74-36.61 28.53-57.11 39.88-24 12.45-32.98 47.16-61.65 51.19-6.38-0.31-12.95-0.57-19.17-1.44 18.05-27.81 46.94-45.55 70.94-67.63 15.2-15.17 35.52-23.09 54.36-32.66 43.67-12.4 85.53-30.71 130.34-38.58 23.69-6.08 45.92-16.53 67.63-27.46 14.1-13.1 27.6-26.87 39.3-42.21z"/>
<path fill="#4af24a" d="m423.55 557.99c-15.56-4.36 13.16-3.5 18.73-2.61-1.72 6.88-13.53 0.5-18.73 2.61z"/>
<path fill="#dada2c" d="m1022.5 628.38c-2 1.05-21.7 27.96-28.46 16.71 9.46-5.59 19.26-10.76 28.46-16.71z"/>
<path fill="#010300" d="m464.86 693.86c17.12-19.89 29.03-51.24 58-55.53 5.62 6.67 11.04 13.46 17.89 18.98 11.98 20.6 15.28 45.51 30.59 64.36 26.67 41.84 47.46 87.13 69.48 131.53 7.86 30.81 18.5 62.45 13.06 94.69-2.88 12.84-5.65 25.69-8.34 38.57-11.58 32.04-33.03 59.34-57.5 82.64-1.92 1.1-3.96 2-5.93 3-0.28-0.3-0.83-0.7-1.1-1 10.91-11.6 22.34-22.9 30.09-36.9 5.44-8.2 17.14-19.3 17.09-27.9-43.68 27.1-95.81 47.4-147.94 34.4-34.92-2.5-68.85-13.2-97.51-33.4 0.72 5.2 2.71 10.3 5.42 14.8 3.6 4 5.89 8.9 7.52 14.1-0.24 0.2-0.73 0.8-0.97 1.1-9.14-14.6-18.12-29.5-26.63-44.44-4.14-21.08-6.58-42.57-9.76-63.83 5.49-29.63 13.43-58.73 18.12-88.49 3.24-9.07 9.06-16.98 13.75-25.35 16.94-44.69 46.97-82.9 74.67-121.33m39.6-43.93c-20.96 23.81-36.35 51.87-54.7 77.58-0.92-0.08-1.04 0.71-0.36 2.35-12.64 18.83-27.83 36.74-39.51 56.49-1.63-0.95-0.97 2.78-1.46 3.82-10.41 17.14-17.38 36.01-24.42 54.68-0.22 0.53-0.66 1.57-0.87 2.09-6.86 24.98-13.54 50.4-13.98 76.43 42.4 22.96 90.95 23.88 137.77 28.59 46.74-7.94 96.63-10.74 137.82-36.48 0.37-24.13-9.81-47.16-14.62-70.61-0.41-1.24-1.19-2.3-2.28-2.98-6.66-17.36-12.96-35.91-22.44-51.74 0.76-0.61-0.41-4.51-1.14-2.65-15.38-16.54-26.12-36.5-36.3-56.48-1.08-4.4-5.17-4.62-8.85-5.13 0.32-0.27 0.98-0.8 1.31-1.06 1.37 0.25 2.77 0.35 4.18 0.37-7.9-28.02-23.95-53.34-41.99-75.23-2.46-2.61-15.93-1.01-18.16-0.04m138.96 268.32c-39.71 24.51-87.61 27.79-132.67 35.48-47.56-4.37-96.93-4.59-140.11-27.47-4.4-1.45-2.04 6.97-2.57 8.41 3.05 23.33 2.65 47.91 14.18 69.03 14.43 13.5 34.39 18.5 51.66 27.4 37.09 6 74.35 16.1 112.07 9 30.32-7.2 58.81-21.5 84.83-38.3 4.93-12.27 9.79-24.62 14.04-37.11-0.81-14.73 2.4-34.85-1.43-46.44z"/>
<path fill="#dadb28" d="m992.27 646.34c7.54 4.51-5.62 8.7-9.7 11.25-6.65 1.62-16.18 13.75-20.74 3.48 10.32-4.63 20.99-8.39 30.44-14.73z"/>
<path fill="#434300" d="m504.46 649.93c2.23-0.97 15.7-2.57 18.16 0.04-6.06-0.01-12.11 0.04-18.16-0.04z"/>
<path fill="#fffe3f" d="m504.46 649.93c6.05 0.08 12.1 0.03 18.16 0.04 18.04 21.89 34.09 47.21 41.99 75.23-1.41-0.02-2.81-0.12-4.18-0.37-31.44-9.28-66.13-10.71-96.99 1.6-4.1 1.09-10.65 4.99-13.68 1.08 18.35-25.71 33.74-53.77 54.7-77.58z"/>
<path fill="#dcdc21" d="m957.4 662.38c3.36-0.89 6.67 3.34 7.31 6.45-11.61 6.01-23.32 12.58-36.52 14.09-2.28-1.43-2.32-5.24-3.1-7.78 10.65-4.55 21.62-8.31 32.31-12.76z"/>
<path fill="#dbdb22" d="m920.06 677.31c4.4-2.21 7.36 8.01 1.95 7.74-11.05 3.27-21.36 8.71-32.09 12.88-1.78-1.46-1.51-4.46-1.92-6.62 10.27-5.5 21.37-9.37 32.06-14z"/>
<path fill="#dbdb23" d="m884.27 692.33c2.99-0.55 2.9 4.31 3.62 6.44-10.64 7.18-23.16 11.76-32.45 20.87-4.4 1.31-1.23-6.7-4.44-8.69 10.53-6.64 21.99-12.97 33.27-18.62z"/>
<path fill="#dcdc20" d="m848.31 712.34c4.65-0.76 4.11 6.66 3.42 10.05-7.6 6.55-15.61 12.74-20.79 21.54-1.59-3.89-7.68-5.48-7.65-9.6 7.94-7.79 13.78-18.4 25.02-21.99z"/>
<path fill="#010101" d="m463.44 726.43c30.86-12.31 65.55-10.88 96.99-1.6-0.33 0.26-0.99 0.79-1.31 1.06-31.26-7.73-65.29-9.69-95.71 2.58-4.48 1.63-9.37 1.05-14.01 1.39-0.68-1.64-0.56-2.43 0.36-2.35 3.03 3.91 9.58 0.01 13.68-1.08z"/>
<path fill="#ffff3f" d="m463.41 728.47c30.42-12.27 64.45-10.31 95.71-2.58 3.68 0.51 7.77 0.73 8.85 5.13 10.18 19.98 20.92 39.94 36.3 56.48-13.4 3.99-29.46-0.28-43.84-0.98-47.12-3.08-94.49-2.11-141.54 1.6-2.08-1.6-8.23 2.14-9-1.77 11.68-19.75 26.87-37.66 39.51-56.49 4.64-0.34 9.53 0.24 14.01-1.39z"/>
<path fill="#dcdc20" d="m821.17 737.16c3.8 2.2 8.74 4.94 6.72 10.42-7.73 12.77-15.48 26.02-20.16 40.3-5.34-1.26 2.37-12.7-5.34-13.82-2.07-14.72 8.98-27.27 18.78-36.9z"/>
<path fill="#40ff40" d="m686.77 758.42c35.62-4.55 64.05 22.68 85.84 47.32 2.42 24.65 4.73 49.35 8.92 73.78-12.37 71.11-45.61 136.78-84.19 197.38-15.89-1.2-32.31 0.5-45.42 10.2-2.31-0.3-3.01 5.7-0.39 4.5 9.29-4.8 19.68-6.6 29.64-9.5 4.95-5.3 4.73 1.1 2.13 1.2-9.91 3.9-18.06 11.1-25.23 18.8 25.82-20.7 62.44-15.9 91.53-4.7 10.32 4.8 22.88 3.3 32.25 10 2.88 0.3 9.93 1.9 7.47 6.3-11.79 2.7-25.53 2.5-38.02 5.5-5.07 0.9-1.36 8.4 3.58 4.8 32.89-6.3 66.51-11.2 99.86-7 14.2 6.4 28.76 12.1 43.06 18.3-7.33 14.6-23.47 24.5-29.98 40.4 3.56-2.2 2.08 4.1 0.3 4.2-0.02-1.4 0.25-3.4-1.84-2.6-21.47 5.6-43.88 1.9-65.65 0-25.96-0.3-47.71-17.8-72.96-21.2-33.87-1.1-71.57 4.4-102.19-13.6-6.56-10.2-14.61-26.8 0.35-33.8 11.4-31.6 38.4-52.7 58.36-78.5 9.85-16.8 19.52-34.09 22.24-53.65 11.24-20.61 5.54-45.82-4.38-65.9-2.5-46.46-18.69-92.79-45.92-130.92 4.57-12.12 18.96-17.23 30.64-21.31z"/>
<path fill="#40ff40" d="m310.07 788.09c15.95-14.9 40.71-28.49 61.81-18.1-4.68 11.49-7.9 22.78-14.66 33.01-0.99-1.1-1.91-5.41-3.42-1.48-12.97 13.6-25.99 27.65-33.13 45.31-4.02 22.38-8.5 44.96-8.42 67.75 3.46 43.31 20.65 84.13 31.31 125.92-15.23 1-29.94-8-45.05-3-11.74 1.1-22.17 6.3-33.1 10-7.19 6.1-5.68-8.7-10.46-5.9 3.9 18.1-7.63 33.9-19.26 46.2-8.61 3.6-18.26 4.2-26.78 8.1-13.51-6.2-27.56-10.4-42.76-7.8 6.45-26.9 27.05-47.1 46.15-65.9 1.94-2.7-2.26-2.9-4.23-1.6-15.29 12.9-33.74 24.3-41.85 43.5-4.49-6.1-9.06 7.2-12.62 9.4-9.99 14.6-28.43-1.4-39.74 4.8-4.22-7-11.72-9.8-18.56-13.5 1.87-5.2 5.96-9.2 9.03-13.8 11.35-16.4 30.67-25.3 45.35-37.6-9.69-4-18.14 3.6-25.76 8.8-17.96 7.3-37.1 21.8-56.97 10.8-6.04-4.4-15.13-6-18.7-12.8 9.15-6.6 18.5-13 27.85-19.2 53.29-17.59 109.71-9.01 164.71-9.01 11.31-3.94 24.15-5.05 34.31-10.96 13.47 3.89 27.03 8.27 40.74 10.72-4.55-12.6-25.9-12.5-35.83-17.87 10.77-5.68 27.78 7.93 39.71 6.35-10.63-12.08-31.41-17.21-46.63-12.56-1.44-27.89-11.76-55.56-5.92-83.51 2.2-13.85 3.86-27.77 5.94-41.64 11.86-18.44 24.66-36.27 36.94-54.43z"/>
<path fill="#dcdc20" d="m799.12 770.97c13.37 15.08 0.64 35.17-5.22 51.98-0.74 1.73-1.16 8.26-3.74 4.9-3.8-8.11-6.31-16.97-8.07-25.65 5.26-10.57 12.1-20.43 17.03-31.23z"/>
<path fill="#010101" d="m418.89 788.12c47.05-3.71 94.42-4.68 141.54-1.6 14.38 0.7 30.44 4.97 43.84 0.98 0.73-1.86 1.9 2.04 1.14 2.65-65.63-3.09-131.4-5.07-196.98 0.02 0.49-1.04-0.17-4.77 1.46-3.82 0.77 3.91 6.92 0.17 9 1.77z"/>
<path fill="#ffff3f" d="m408.43 790.17c65.58-5.09 131.35-3.11 196.98-0.02 9.48 15.83 15.78 34.38 22.44 51.74-22.3 8.14-44.5 17.16-67.54 22.81-58.68 1.67-123.28 10.93-176.3-19.85 7.04-18.67 14.01-37.54 24.42-54.68z"/>
<path fill="#01fe02" d="m353.8 801.52c1.51-3.93 2.43 0.38 3.42 1.48-8.52 17.11-13.12 36.67-19.31 54.24-6.02 22.55-10.88 46.72-10.59 70.26 9.34 33.56 10.77 73.1 36.59 98.7 3.11 4.5 5.17 9.8 8.8 13.9 10.64 9.9 22.14 18.9 33.26 28.3 0.66 6.8-13.47 5-17.04 1.2-22.36 2.4-43.61-20.3-65.52-14.2-19.24 2.3-39.8 1.8-58.33 8.5-0.31-5.7-7.82-4.5-5 2.3 2.35 13.8-10.12 22-16.11 32.8-3.73 8-14.09 11-22.26 9.7-2.07-6.7-9.09-7.9-12.8-12.8 8.52-3.9 18.17-4.5 26.78-8.1 11.63-12.3 23.16-28.1 19.26-46.2 4.78-2.8 3.27 12 10.46 5.9 10.93-3.7 21.36-8.9 33.1-10 15.11-5 29.82 4 45.05 3-10.66-41.79-27.85-82.61-31.31-125.92-0.08-22.79 4.4-45.37 8.42-67.75 7.14-17.66 20.16-31.71 33.13-45.31z"/>
<path fill="#010101" d="m560.31 864.7c23.04-5.65 45.24-14.67 67.54-22.81 1.09 0.68 1.87 1.74 2.28 2.98-27.22 4.54-53.18 23.12-82.19 22.04-54.99 1.78-115.18 8.84-164.8-19.97 0.21-0.52 0.65-1.56 0.87-2.09 53.02 30.78 117.62 21.52 176.3 19.85z"/>
<path fill="#ffff3f" d="m547.94 866.91c29.01 1.08 54.97-17.5 82.19-22.04 4.81 23.45 14.99 46.48 14.62 70.61-41.19 25.74-91.08 28.54-137.82 36.48-46.82-4.71-95.37-5.63-137.77-28.59 0.44-26.03 7.12-51.45 13.98-76.43 49.62 28.81 109.81 21.75 164.8 19.97z"/>
<path fill="#000a00" d="m327.32 927.5c-0.29-23.54 4.57-47.71 10.59-70.26 0.41 1.34 0.79 2.69 1.04 4.09-1.91 18.79-5.8 37.32-8.57 55.99 1.34 27.22 10.79 53.15 22.47 77.53 2.84 15.85 16.32 28.35 27.14 40.15-3.78-2.2-5.39 2.7-7.28 5.1-3.63-4.1-5.69-9.4-8.8-13.9-25.82-25.6-27.25-65.14-36.59-98.7z"/>
<path fill="#01fe01" d="m702.05 910.65c9.92 20.08 15.62 45.29 4.38 65.9-2.72 19.56-12.39 36.85-22.24 53.65-19.96 25.8-46.96 46.9-58.36 78.5-14.96 7-6.91 23.6-0.35 33.8 30.62 18 68.32 12.5 102.19 13.6 25.25 3.4 47 20.9 72.96 21.2 21.77 1.9 44.18 5.6 65.65 0 2.09-0.8 1.82 1.2 1.84 2.6-0.85 6.5-1.19 13-1.22 19.5-8.85 6-23.46 6.3-31.97 3.5 2.85 0.4 25.42-0.1 11.02-0.9-27.68 3.8-53.02-9.2-78.94-16.1-6.05-0.6-11.42-3.2-15.99-7-14.97-12.8-36.11-4.2-53.36-10.7-10.37 1-20.42 4.2-30.84 5 2.29 0.6 4.66 0.9 7.13 0.9-30.87 0.9-78.74 1.3-93.75-34 8.7-27.9 36.72-44.5 53.81-65.2-3.03-0.1-3.98 4.6-6.98 3.7 3.57-22.5 30.23-28.8 39.3-48.3 28.23-32.8 36.1-77.57 35.72-119.65z"/>
<path fill="#ffff3f" d="m643.42 918.25c3.83 11.59 0.62 31.71 1.43 46.44-4.25 12.49-9.11 24.84-14.04 37.11-26.02 16.8-54.51 31.1-84.83 38.3-37.72 7.1-74.98-3-112.07-9-17.27-8.9-37.23-13.9-51.66-27.4-11.53-21.12-11.13-45.7-14.18-69.03 0.53-1.44-1.83-9.86 2.57-8.41 43.18 22.88 92.55 23.1 140.11 27.47 45.06-7.69 92.96-10.97 132.67-35.48z"/>
<path fill="#03fd03" d="m352.85 994.85c9.4 5.65 11.7 21.15 25.02 18.85 4.76 10.7 16.05 20.3 16.99 31.7-5.96-1.6-10-6.9-14.87-10.4-10.82-11.8-24.3-24.3-27.14-40.15z"/>
<path fill="#02fe02" d="m664.6 1015.6c4.83-7.6 8.38-16.94 16.99-21.05-5.15 25.25-29.27 41.15-46.18 58.95-21.54 9.3-39.85 29.2-64 30.4-1.21-6.3 7.35-7.9 10.7-11.8 1.97-1 4.01-1.9 5.93-3 15.59-11.4 28.56-25.6 39.84-41.1 13.76 2.3 26.41-4.2 36.72-12.4z"/>
<path fill="#fefe3f" d="m480.25 1040.7c52.13 13 104.26-7.3 147.94-34.4 0.05 8.6-11.65 19.7-17.09 27.9-68.02 42.8-162.27 37.8-222.86-16.2-0.07 1.4-0.1 2.7-0.08 4.1-2.71-4.5-4.7-9.6-5.42-14.8 28.66 20.2 62.59 30.9 97.51 33.4z"/>
<path fill="#000800" d="m123.92 1022.2c7.62-5.2 16.07-12.8 25.76-8.8-14.68 12.3-34 21.2-45.35 37.6-2.55-2-6.06-1.7-9.13-2 8.48-10.8 22.48-14.4 32.09-23.9 6.89-3.4-1.1-2.8-3.37-2.9z"/>
<path fill="#cdcc00" d="m388.24 1018c60.59 54 154.84 59 222.86 16.2-7.75 14-19.18 25.3-30.09 36.9-26.95 23.1-64.66 23-98.1 20.1-15.53-5.7-30.93-11.8-46.45-17.6-15.32-10.4-26.57-25.7-40.78-37.4-1.63-5.2-3.92-10.1-7.52-14.1-0.02-1.4 0.01-2.7 0.08-4.1z"/>
<path fill="#02fd03" d="m66.95 1033c19.87 11 39.01-3.5 56.97-10.8 2.27 0.1 10.26-0.5 3.37 2.9-9.61 9.5-23.61 13.1-32.09 23.9-4.05 5.5-8.98 10.5-14.1 15.1-7.12-1.5-4.86-9.6-5.14-14.9-0.19-6.8-9.31-9.4-9.01-16.2z"/>
<path fill="#fefef7" d="m42.76 1025.7c2.7-1.5 12.67 2.1 7.12 5.4-18.5 13-34.5 32.5-37.15 55.5-0.51 1.6-1.04 3.1-1.52 4.7-3.19-25.4 17.81-46.1 31.55-65.6z"/>
<path fill="#fefd03" d="m12.73 1086.6c2.65-23 18.65-42.5 37.15-55.5 4.62 3.3 9.77 6.6 10.21 12.9-15.99 13-34.36 25.6-46.32 43.7-0.26-0.3-0.78-0.8-1.04-1.1z"/>
<path fill="#cdcc01" d="m60.09 1044c4.13 4.3 9.22 10.7 6.18 17-16.81 13-38.1 18.9-54.01 33.3-2.3 1.5-1.21-1.9-1.05-3 0.48-1.6 1.01-3.1 1.52-4.7 0.26 0.3 0.78 0.8 1.04 1.1 11.96-18.1 30.33-30.7 46.32-43.7z"/>
<path fill="#01fe02" d="m153.6 1073.5c3.56-2.2 8.13-15.5 12.62-9.4-4.13 9.9-8.9 19.7-10.37 30.6-7.79 8.7-22.04 4.5-32.51 5 2.37-9.3-6.69-14.5-9.48-21.4 11.31-6.2 29.75 9.8 39.74-4.8z"/>
<path fill="#fffe02" d="m90.24 1073.1c7.72 2.6 14.94 7.2 21.04 12.6 0.46 1.6 2.76 3.6 0.03 4.8-14.71 16.9-27.4 35.9-38.34 55.5-4.79-2-3.03-17.7-5.84-25 4.88-17.1 12.61-33.5 23.11-47.9z"/>
<path fill="#cbcb05" d="m382.12 1080c6.22-0.1 12.46-0.2 18.68 0-3.91 8.9-10.97 18-17.98 24-1.86-6.6-0.75-16.2-0.7-24z"/>
<path fill="#cccc01" d="m111.28 1085.7c5.16 4 7.53 12.1 6.52 18.5-10.77 17.5-29.4 28.7-44.83 41.8 10.94-19.6 23.63-38.6 38.34-55.5 2.73-1.2 0.43-3.2-0.03-4.8z"/>
<path fill="#fffe02" d="m166.09 1096c14.07 1.2 34.02-2.7 45.17 7.4-3.82 2.1-6.12-3.3-9.77-2.2-15.29 13.8-24.59 36.5-18 56-21.81-12.1-17.06-40.4-17.4-61.2z"/>
<path fill="#cdcc01" d="m201.49 1101.2c3.65-1.1 5.95 4.3 9.77 2.2 5.77 0.2 10.22 7.8 10.63 13.1-14.19 13.4-35.97 28-32.81 50.2-4.5 1-5.86-6-5.59-9.5-6.59-19.5 2.71-42.2 18-56z"/>
<path fill="#8aef2a" d="m869.16 1111.9c7.72 1.1 21.2-1.9 26.51 1.1-3.5 1.8-17.85-3.9-14.64 4-3.55-1.9-11.01-1.2-11.87-5.1z"/>
<path fill="#80fe01" d="m881.03 1117c-3.21-7.9 11.14-2.2 14.64-4 18.88 3.8 37.09 10.6 54.28 19.2-7.7 7.8-23.54 8.9-30.35 19.6-6.39-0.2-6.96-10.5-10.61-14.8-3.8-13.6-21.55-8.4-27.96-20z"/>
<path fill="#251102" d="m119 1115c5.56 1 15.21-2.1 19 1-5.57-1.1-15.21 2.1-19-1z"/>
<path fill="#80fd04" d="m939.24 1117c14.7 1.9 28.77 7.1 43.15 10.6 0.81 7.6-13.47 7-17.33 12.3-7.92-7.6-20.52-13.7-25.82-22.9z"/>
<path fill="#fefe02" d="m924.75 1154.9c9.6-7.5 21-12.3 31.26-18.9 10.6 23.2 14 51.2 1.21 74.2-2.05-5.6-7.18-10-6.1-16.4 0.53-18.1-24.31-23.1-26.37-38.9z"/>
<path fill="#fefe02" d="m970.97 1157.6c-4.24-12 15.48-30.3 24.41-15.9 12.42 17.2 22.02 41.5 12.32 62.2-1.5 0.4-2.4-0.8-2.8-2-1.3-21.7-24.45-27.7-33.93-44.3z"/>
<path fill="#cbcb05" d="m572.94 1137.2c0.71 2.6-6.93 11.6 1.22 14.9-7.34 3.8-15.79 5.5-22.34 10.8 5.82-9.8 8.51-22.3 21.12-25.7z"/>
<path fill="#fefe02" d="m878.23 1182.9c-6.02-17.9 13.36-29.1 25.49-37.7 18.43 20.5 22.76 52.6 15.19 77.7-2.56-13.9-18.73-18.9-25.68-30.1-2.76-6.2-9.54-7.3-15-9.9z"/>
<path fill="#cccc01" d="m924.69 1176.3c-1.35-7.5-13.07-17.2 0.06-21.4 2.06 15.8 26.9 20.8 26.37 38.9-1.08 6.4 4.05 10.8 6.1 16.4-1.11 4.4-5.31-3.6-7.42-4-13.49-5.9-9.8-26.8-25.11-29.9z"/>
<path fill="#cccc02" d="m970.97 1157.6c9.48 16.6 32.63 22.6 33.93 44.3-4.7 5.9-8.68-7.7-12.77-10.7 1.17-4-3.3-8.4-7.22-6.6-13.75-0.5-13.95-16.9-13.94-27z"/>
<path fill="#47f745" d="m666.82 1173.2c10.42-0.8 20.47-4 30.84-5 17.25 6.5 38.39-2.1 53.36 10.7-24.73-8.5-51.38-9.1-77.07-4.8-2.47 0-4.84-0.3-7.13-0.9z"/>
<path fill="#cccb01" d="m871.33 1180.2c6.9-4.5 2.25 6.1 6.9 2.7 5.46 2.6 12.24 3.7 15 9.9 6.95 11.2 23.12 16.2 25.68 30.1-6.38 1.7-6.73-7.2-12.32-8.5-15.16-5.8-33.32-16.5-35.26-34.2z"/>
<path fill="#f1f620" d="m984.91 1184.6c3.92-1.8 8.39 2.6 7.22 6.6-2.75-1.8-5.84-3.5-7.22-6.6z"/>
<path fill="#43fa42" d="m767.01 1185.9c25.92 6.9 51.26 19.9 78.94 16.1 14.4 0.8-8.17 1.3-11.02 0.9-23.27 1.6-47.83-5.8-67.92-17z"/>
</svg>
